<svg width="800" height="340" viewBox="0 0 800 340" fill="none" xmlns="http://www.w3.org/2000/svg">
<path d="M0 113.83V239.591V340H800V124.269H775.33V150.117H738.074V91.9591H690.245V140.673H661.548V50.2047H609.188V150.117H577.47V171.988H562.366V113.83H548.773V91.9591H540.717V79.5322H499.434V91.9591H490.875V113.83L480.302 124.269V150.117H447.577V124.269H433.48V67.6023H388.169V158.567H362.492L344.368 140.673H303.587L285.463 158.567H242.668V113.83H216.992V0H183.763L172.687 10.9357V41.7544H135.935V67.6023H127.879L115.796 79.5322V225.175L81.0573 190.877V58.1579H38.2631V79.5322H13.5935V113.83H0Z" fill="#EEC0C1"/>
</svg>
