<svg fill="none" height="300" viewBox="0 0 800 300" width="800" xmlns="http://www.w3.org/2000/svg" xmlns:xlink="http://www.w3.org/1999/xlink"><linearGradient id="a" gradientUnits="userSpaceOnUse" x1="24.8432" x2="24.8432" y1="0" y2="171.951"><stop offset="0" stop-color="#f9a7bf"/><stop offset="1" stop-color="#ffbdaf"/></linearGradient><path d="m79.2974 89.8026h32.1205v185.526h-32.1205z" fill="#fef0f0"/><path d="m111.418 89.8026h23.0866v185.526h-23.0866z" fill="#997aa7"/><path d="m0 0h32.1205v3.94737h-32.1205z" fill="#f4ec9e" transform="matrix(1 0 0 -1 79.2974 89.8026)"/><path d="m0 0h23.0866v3.94737h-23.0866z" fill="#95bcec" transform="matrix(1 0 0 -1 111.418 89.8026)"/><path d="m85.3199 82.8947h24.0903v2.96053h-24.0903z" fill="#ffbbb3"/><path d="m109.41 82.8947h17.064v2.96053h-17.064z" fill="#755f86"/><path d="m94.3538 123.312-15.0564-14.759v166.776h32.1206v-65.431l-17.0642-12.3z" fill="#e6d8d9"/><path d="m134.504 227.102-23.086-16.905v65.132h23.086z" fill="#73628b"/><g fill="#dfcdcd"><path d="m79.2974 96.7105h32.1205v.986842h-32.1205z"/><path d="m79.2974 102.632h32.1205v.986842h-32.1205z"/><path d="m79.2974 108.553h32.1205v.986842h-32.1205z"/><path d="m79.2974 114.474h32.1205v.986842h-32.1205z"/><path d="m79.2974 120.395h32.1205v.986842h-32.1205z"/><path d="m79.2974 126.316h32.1205v.986842h-32.1205z"/><path d="m79.2974 132.237h32.1205v.986842h-32.1205z"/><path d="m79.2974 138.158h32.1205v.986842h-32.1205z"/><path d="m79.2974 144.079h32.1205v.986842h-32.1205z"/><path d="m79.2974 150h32.1205v.986842h-32.1205z"/><path d="m79.2974 155.921h32.1205v.986842h-32.1205z"/><path d="m79.2974 161.842h32.1205v.986842h-32.1205z"/><path d="m79.2974 167.763h32.1205v.986842h-32.1205z"/><path d="m79.2974 173.684h32.1205v.986842h-32.1205z"/><path d="m79.2974 179.605h32.1205v.986842h-32.1205z"/><path d="m79.2974 185.526h32.1205v.986842h-32.1205z"/><path d="m79.2974 191.447h32.1205v.986842h-32.1205z"/><path d="m79.2974 197.368h32.1205v.986842h-32.1205z"/><path d="m79.2974 203.289h32.1205v.986842h-32.1205z"/><path d="m79.2974 209.211h32.1205v.986842h-32.1205z"/><path d="m79.2974 215.132h32.1205v.986842h-32.1205z"/><path d="m79.2974 221.053h32.1205v.986842h-32.1205z"/><path d="m79.2974 226.974h32.1205v.986842h-32.1205z"/><path d="m79.2974 232.895h32.1205v.986842h-32.1205z"/><path d="m79.2974 238.816h32.1205v.986842h-32.1205z"/><path d="m79.2974 244.737h32.1205v.986842h-32.1205z"/><path d="m79.2974 250.658h32.1205v.986842h-32.1205z"/><path d="m79.2974 256.579h32.1205v.986842h-32.1205z"/><path d="m79.2974 262.5h32.1205v.986842h-32.1205z"/></g><path d="m15.0565 74.0132h32.1205v185.526h-32.1205z" fill="#ebd6d4"/><path d="m47.1769 74.0132h23.0866v185.526h-23.0866z" fill="#ac6684"/><path d="m682.56 111.513h32.1205v185.526h-32.1205z" fill="#ebd6d4"/><path d="m714.68 111.513h23.0866v185.526h-23.0866z" fill="#ac6684"/><path d="m395.483 108.553h32.1205v185.526h-32.1205z" fill="#dcd4eb"/><path d="m427.604 108.553h23.0866v185.526h-23.0866z" fill="#a666ac"/><path d="m146.55 179.605h19.9899v115.461h-19.9899z" fill="#dcd4eb"/><path d="m166.539 179.605h14.3677v115.461h-14.3677z" fill="#a666ac"/><path d="m0 0h60.9787v182.566h-60.9787z" fill="#fff" transform="matrix(-1 0 0 1 252.698 107.566)"/><path d="m252.698 107.566h20.3262v182.566h-20.3262z" fill="#de97a6"/><path d="m0 0h49.6863v171.951h-49.6863z" fill="url(#a)" transform="matrix(-1 0 0 1 247.051 112.873)"/><path d="m0 0h49.6863v1.06143h-49.6863z" fill="#ad789c" transform="matrix(-1 0 0 1 247.051 119.242)"/><path d="m0 0h49.6863v1.06143h-49.6863z" fill="#ad789c" transform="matrix(-1 0 0 1 247.051 126.672)"/><path d="m0 0h49.6863v1.06143h-49.6863z" fill="#ad789c" transform="matrix(-1 0 0 1 247.051 134.102)"/><path d="m0 0h49.6863v1.06143h-49.6863z" fill="#ad789c" transform="matrix(-1 0 0 1 247.051 141.531)"/><path d="m0 0h49.6863v1.06143h-49.6863z" fill="#ad789c" transform="matrix(-1 0 0 1 247.051 148.962)"/><path d="m0 0h49.6863v1.06143h-49.6863z" fill="#ad789c" transform="matrix(-1 0 0 1 247.051 156.392)"/><path d="m0 0h49.6863v1.06143h-49.6863z" fill="#ad789c" transform="matrix(-1 0 0 1 247.051 163.822)"/><path d="m0 0h49.6863v1.06143h-49.6863z" fill="#ad789c" transform="matrix(-1 0 0 1 247.051 171.252)"/><path d="m0 0h49.6863v1.06143h-49.6863z" fill="#ad789c" transform="matrix(-1 0 0 1 247.051 178.682)"/><path d="m0 0h49.6863v1.06143h-49.6863z" fill="#ad789c" transform="matrix(-1 0 0 1 247.051 186.112)"/><path d="m0 0h49.6863v1.06143h-49.6863z" fill="#ad789c" transform="matrix(-1 0 0 1 247.051 193.542)"/><path d="m0 0h49.6863v1.06143h-49.6863z" fill="#ad789c" transform="matrix(-1 0 0 1 247.051 200.972)"/><path d="m0 0h49.6863v1.06143h-49.6863z" fill="#ad789c" transform="matrix(-1 0 0 1 247.051 208.402)"/><path d="m0 0h49.6863v1.06143h-49.6863z" fill="#ad789c" transform="matrix(-1 0 0 1 247.051 215.832)"/><path d="m0 0h49.6863v1.06143h-49.6863z" fill="#ad789c" transform="matrix(-1 0 0 1 247.051 223.262)"/><path d="m0 0h49.6863v1.06143h-49.6863z" fill="#ad789c" transform="matrix(-1 0 0 1 247.051 230.692)"/><path d="m0 0h49.6863v1.06143h-49.6863z" fill="#ad789c" transform="matrix(-1 0 0 1 247.051 238.122)"/><path d="m0 0h49.6863v1.06143h-49.6863z" fill="#ad789c" transform="matrix(-1 0 0 1 247.051 245.552)"/><path d="m0 0h49.6863v1.06143h-49.6863z" fill="#ad789c" transform="matrix(-1 0 0 1 247.051 252.982)"/><path d="m0 0h49.6863v1.06143h-49.6863z" fill="#ad789c" transform="matrix(-1 0 0 1 247.051 260.412)"/><path d="m0 0h49.6863v1.06143h-49.6863z" fill="#ad789c" transform="matrix(-1 0 0 1 247.051 267.842)"/><path d="m0 0h65.2447v213.158h-65.2447z" fill="#fff" transform="matrix(-1 0 0 1 352.321 76.9737)"/><path d="m352.07 76.9737h14.3036v213.158h-14.3036z" fill="#de97a6"/><path d="m346.299 76.9737h50.1882v12.8289h-50.1882z" fill="#e2c8c6" transform="matrix(-1 0 0 -1 692.598 153.9474)"/><path d="m0 0h11.0414v12.8289h-11.0414z" fill="#5f4e79" transform="matrix(1 0 0 -1 346.299 76.9737)"/><path d="m310.163 135.197h-23.086v154.935h35.131v-82.12h-12.045z" fill="#e4d8d9"/><path d="m0 0h47.0753v215.02h-47.0753z" fill="#fff" transform="matrix(-1 0 0 1 789.861 84.9805)"/><path d="m789.68 84.9805h10.3203v215.02h-10.3203z" fill="#de97a6"/><path d="m785.515 84.9805h36.2117v12.941h-36.2117z" fill="#e2c8c6" transform="matrix(-1 0 0 -1 1571.03 169.961)"/><path d="m0 0h7.96658v12.941h-7.96658z" fill="#5f4e79" transform="matrix(1 0 0 -1 785.515 84.9805)"/><path d="m759.443 143.713h-16.658v156.287h25.349v-82.836h-8.691z" fill="#e4d8d9"/><path d="m0 245.724h182.685v53.2895h-182.685z" fill="#47354b"/><path d="m158.595 253.618h17.064v13.8158h-17.064z" fill="#bddf84"/><path d="m134.504 253.618h17.064v13.8158h-17.064z" fill="#bddf84"/><path d="m110.414 253.618h17.064v13.8158h-17.064z" fill="#bddf84"/><path d="m86.3237 253.618h17.064v13.8158h-17.064z" fill="#bddf84"/><path d="m0 0h182.685v4.93421h-182.685z" fill="#ee637c" transform="matrix(1 0 0 -1 0 245.724)"/><path d="m499.875 20.7237h105.395v277.303h-105.395z" fill="#fef0f1"/><path d="m606.775 292.599-58.218-177.632v177.632z" fill="#ecd0d0"/><path d="m510.916 36.5132h10.0376v22.6974h-10.0376z" fill="#fad9dc"/><path d="m534.003 85.8553h10.0376v21.7105h-10.0376z" fill="#fad9dc"/><path d="m569.134 85.8553h10.0376v21.7105h-10.0376z" fill="#fad9dc"/><path d="m520.954 149.013h10.0376v22.6974h-10.0376z" fill="#fad9dc"/><path d="m555.082 47.3684h10.0376v22.6974h-10.0376z" fill="#faecc8"/><path d="m559.097 167.763h10.0376v22.6974h-10.0376z" fill="#faecc8"/><path d="m0 0h76.2861v277.303h-76.2861z" fill="#745b85" transform="matrix(-1 0 0 1 681.556 20.7237)"/><path d="m0 0h105.395v4.93421h-105.395z" fill="#f4ea9d" transform="matrix(1 0 0 -1 499.875 20.7237)"/><path d="m681.556 20.7237h76.2861v4.93421h-76.2861z" fill="#93b1e4" transform="matrix(-1 0 0 -1 1363.112 41.4474)"/><path d="m515.935 15.7895h89.335v-15.78948379h-82.335c-3.866 0-7 3.13400379-7 7.00000379z" fill="#ffc2b0"/><path d="m669.511 15.7895h-64.241v-15.78948379h57.241c3.866 0 7 3.13400379 7 7.00000379z" fill="#745b85"/><path d="m619.322 47.3684h10.0376v22.6974h-10.0376z" fill="#6e5082"/><path d="m662.484 72.0395h10.0376v22.6974h-10.0376z" fill="#6e5082"/><path d="m629.36 128.289h10.0376v21.7105h-10.0376z" fill="#6e5082"/><path d="m652.447 162.829h10.0376v21.7105h-10.0376z" fill="#6e5082"/><path d="m471.769 114.474h55.6682v169.737h-55.6682z" fill="#ffb0b7"/><path d="m471.769 130.924h55.6682v8.97287h-55.6682z" fill="#e19299"/><path d="m471.769 151.113h55.6682v8.97287h-55.6682z" fill="#e19299"/><path d="m471.769 171.302h55.6682v8.97287h-55.6682z" fill="#e19299"/><path d="m471.769 191.491h55.6682v8.97287h-55.6682z" fill="#e19299"/><path d="m471.769 211.68h55.6682v8.97287h-55.6682z" fill="#e19299"/><path d="m471.769 231.869h55.6682v8.97287h-55.6682z" fill="#e19299"/><path d="m471.769 252.058h55.6682v8.97287h-55.6682z" fill="#e19299"/><path d="m0 0h20.6179v169.737h-20.6179z" fill="#af6d84" transform="matrix(-1 0 0 1 548.055 114.474)"/><path d="m0 0h133.372v39.7414h-133.372z" fill="#47354b" transform="matrix(-1 0 0 1 641.276 259.272)"/><path d="m0 0h12.4578v10.3033h-12.4578z" fill="#bddf84" transform="matrix(-1 0 0 1 525.492 265.16)"/><path d="m0 0h12.4578v10.3033h-12.4578z" fill="#bddf84" transform="matrix(-1 0 0 1 543.08 265.16)"/><path d="m0 0h12.4578v10.3033h-12.4578z" fill="#bddf84" transform="matrix(-1 0 0 1 560.667 265.16)"/><path d="m0 0h12.4578v10.3033h-12.4578z" fill="#bddf84" transform="matrix(-1 0 0 1 578.255 265.16)"/><path d="m641.276 259.272h133.372v3.67976h-133.372z" fill="#ee637c" transform="matrix(-1 0 0 -1 1282.552 518.544)"/><path d="m377.415 270.395h2.00753v27.6316h-2.00753z" fill="#422b40"/><path d="m507.905 270.395h1.97369v130.489h-1.97369z" fill="#422b40" transform="matrix(0 1 -1 0 778.3 -237.51)"/><path d="m393.476 270.395h2.00753v27.6316h-2.00753z" fill="#422b40"/><path d="m409.536 270.395h2.00753v27.6316h-2.00753z" fill="#422b40"/><path d="m425.596 270.395h2.00753v27.6316h-2.00753z" fill="#422b40"/><path d="m441.656 270.395h2.00753v27.6316h-2.00753z" fill="#422b40"/><path d="m457.716 270.395h2.00753v27.6316h-2.00753z" fill="#422b40"/><path d="m473.777 270.395h2.00753v27.6316h-2.00753z" fill="#422b40"/><path d="m489.837 270.395h2.00753v27.6316h-2.00753z" fill="#422b40"/><path d="m505.897 270.395h2.00753v27.6316h-2.00753z" fill="#422b40"/><path d="m273.024 260.526h102.384v36.5132h-102.384z" fill="#604577"/><path d="m353.325 270.395h12.0452v16.7763h-12.0452z" fill="#de8edb"/><path d="m330.238 270.395h12.0452v16.7763h-12.0452z" fill="#de8edb"/><path d="m273.024 260.526h114.429l-31.412-31.579h-56.654z" fill="#5c4474"/></svg>