<svg fill="none" height="450" viewBox="0 0 800 450" width="800" xmlns="http://www.w3.org/2000/svg"><g clip-rule="evenodd" fill="#fff" fill-rule="evenodd"><path d="m140.652 322.91c-5.349-4.318-12.193-6.91-19.652-6.91-10.277 0-19.387 4.921-25.0267 12.498-1.7757-.327-3.6049-.498-5.4733-.498-16.8447 0-30.5 13.879-30.5 31s13.6553 31 30.5 31c.8242 0 1.6408-.033 2.4485-.098 4.5336 8.957 13.8255 15.098 24.5515 15.098 9.107 0 17.181-4.427 22.185-11.247 3.999 1.454 8.314 2.247 12.815 2.247 20.711 0 37.5-16.789 37.5-37.5s-16.789-37.5-37.5-37.5c-4.14 0-8.124.671-11.848 1.91z"/><path d="m189.565 13.2434c-5.589-7.99847-14.954-13.2434-25.565-13.2434-10.277 0-19.387 4.92053-25.027 12.4978-1.775-.327-3.605-.4978-5.473-.4978-16.845 0-30.5 13.8792-30.5 31s13.655 31 30.5 31c5.179 0 10.057-1.3122 14.329-3.6273 4.625 3.5305 10.403 5.6273 16.671 5.6273 5.101 0 9.878-1.3888 13.972-3.809 4.467 2.4291 9.586 3.809 15.028 3.809 17.397 0 31.5-14.103 31.5-31.5s-14.103-31.5-31.5-31.5c-1.333 0-2.646.0828-3.935.2434z"/><path d="m362.866 316.043c-5.336-5.568-12.902-9.043-21.293-9.043-9.7 0-18.297 4.644-23.621 11.796-1.676-.309-3.402-.47-5.165-.47-15.899 0-28.787 13.099-28.787 29.258s12.888 29.259 28.787 29.259c.777 0 1.548-.032 2.31-.093 4.279 8.454 13.049 14.25 23.173 14.25 9.848 0 18.415-5.485 22.813-13.566 3.122 1.016 6.455 1.566 9.917 1.566 4.961 0 9.659-1.129 13.85-3.144 4.739 3.245 10.473 5.144 16.65 5.144 16.292 0 29.5-13.208 29.5-29.5s-13.208-29.5-29.5-29.5c-3.109 0-6.105.481-8.919 1.372-5.69-5.2-13.265-8.372-21.581-8.372-2.811 0-5.537.362-8.134 1.043z"/><path d="m523.652 134.91c-5.349-4.318-12.193-6.91-19.652-6.91-10.277 0-19.387 4.921-25.027 12.498-1.775-.327-3.605-.498-5.473-.498-16.845 0-30.5 13.879-30.5 31s13.655 31 30.5 31c.824 0 1.641-.033 2.448-.098 4.534 8.957 13.826 15.098 24.552 15.098 9.107 0 17.181-4.427 22.185-11.247 3.999 1.454 8.314 2.247 12.815 2.247 20.711 0 37.5-16.789 37.5-37.5s-16.789-37.5-37.5-37.5c-4.14 0-8.124.671-11.848 1.91z"/><path d="m714.447 42.308c-5.191-9.6967-15.534-16.308-27.447-16.308-12.632 0-23.499 7.4334-28.329 18.0968-.716-.0641-1.44-.0968-2.171-.0968-13.531 0-24.5 11.1929-24.5 25s10.969 25 24.5 25c3.524 0 6.875-.7594 9.903-2.1266 5.011 6.7514 13.043 11.1266 22.097 11.1266 8.356 0 15.842-3.7269 20.885-9.6092 2.842 1.041 5.912 1.6092 9.115 1.6092 14.636 0 26.5-11.8645 26.5-26.5s-11.864-26.5-26.5-26.5c-1.378 0-2.732.1052-4.053.308z"/><path d="m638.652 364.91c-5.349-4.318-12.193-6.91-19.652-6.91-10.277 0-19.387 4.921-25.027 12.498-1.775-.327-3.605-.498-5.473-.498-16.845 0-30.5 13.879-30.5 31s13.655 31 30.5 31c.824 0 1.641-.033 2.448-.098 4.534 8.957 13.826 15.098 24.552 15.098 9.107 0 17.181-4.427 22.185-11.247 3.999 1.454 8.314 2.247 12.815 2.247 20.711 0 37.5-16.789 37.5-37.5s-16.789-37.5-37.5-37.5c-4.14 0-8.124.671-11.848 1.91z"/></g></svg>