<svg fill="none" height="224" viewBox="0 0 800 224" width="800" xmlns="http://www.w3.org/2000/svg" xmlns:xlink="http://www.w3.org/1999/xlink"><linearGradient id="a" gradientUnits="userSpaceOnUse" x1="401" x2="401" y1="1" y2="224"><stop offset="0" stop-color="#3c73a5"/><stop offset="1" stop-color="#2f425e"/></linearGradient><path d="m124.578 1-124.578 146.509v76.491h802v-76.491l-92.057-92.9655-84.553 92.9655-123.89-55.009-76.235 41.476-67.042-68.8414-70.043 82.3744z" fill="url(#a)"/><g fill="#fff"><path d="m746 91.1788-36-37.6788-30 33.6258h4.125l10 4.053 14.875-1.6788 15.75 5.394 8.75-8.894z"/><path d="m519 100.248-17.718-8.248-13.782 7.5 3.214-.0789 3.989 1.5789 8.297 2 6.5-.5 8 1.5z"/><path d="m375 82.4128-16.644-17.4128-14.356 16.6667 4.429-1 3.747 3.3333 6.18-4 6.765 2.4128 3.747-3.0795z"/><path d="m188.5 58-64-58-64 75.5 29-23.5 16 6 24-18 25 23.5 8-13.5z"/></g></svg>