<svg fill="none" height="156" viewBox="0 0 800 156" width="800" xmlns="http://www.w3.org/2000/svg" xmlns:xlink="http://www.w3.org/1999/xlink"><linearGradient id="a" gradientUnits="userSpaceOnUse" x1="400" x2="400" y1="0" y2="156"><stop offset="0" stop-color="#234f3f"/><stop offset="1" stop-color="#070f1c"/></linearGradient><path clip-rule="evenodd" d="m0 156v-155.99994859c2.14018 19.23004859 4.07925 29.03274859 8.82352 44.71334859h-4.88266c1.62956 6.8273 3.62368 13.0553 6.44584 20.5305.8454-2.749 1.5798-5.4074 2.2421-8.1271h-4.25528c4.27658-14.6829 5.98538-23.3859 7.84008-39.7298 1.9017 17.0868 3.6246 25.7969 7.8401 39.7298h-4.3384c1.5952 6.6838 3.5838 12.7211 6.5162 20.3064h-5.0099c1.3421 4.048 2.894 7.8912 4.8245 12.0289 1.1511-3.0968 2.0819-5.9543 2.8877-8.9065h-3.6397c3.6579-11.2041 5.1195-17.845 6.7059-30.3165 1.2345 9.8959 2.381 16.1097 4.4384 23.1785 2.9547-11.0645 4.2073-18.1375 5.5616-30.9061 1.4553 13.9909 2.7739 21.1229 6 32.5314h-3.3202c.678 3.0395 1.4489 5.9157 2.3848 8.9365 1.6276-6.4827 2.5033-11.8428 3.4354-20.2171 1.2413 11.3713 2.366 17.168 5.1176 26.4404h-2.8319c.6332 2.7047 1.3613 5.2504 2.2651 7.9653 1.4197-3.8756 2.4828-7.2255 3.3671-10.7216h-3.065c3.0804-10.1809 4.3112-16.2153 5.6471-27.5479 1.3697 11.8476 2.6107 17.8871 5.6471 27.5479h-3.1249c.7459 3.0084 1.6111 5.8279 2.7042 8.8747 1.4898-4.7306 2.3561-8.9142 3.2736-15.1718.8881 6.1762 1.7203 10.3259 3.0555 14.6511.9795-2.9148 1.7655-5.5887 2.4431-8.354h-2.9692c2.9841-10.1809 4.1764-16.2153 5.4706-27.5479 1.1523 10.2887 2.2106 16.1971 4.3955 23.9008 2.5374-7.7037 3.7663-13.6121 5.1045-23.9008.3387 2.5538.6714 4.8385 1.0232 6.9623 2.0976-7.7433 3.2509-14.2728 4.4768-24.3493 1.0743 9.0042 2.0837 15.1675 3.6532 21.4582 3.9348-10.1141 5.8068-17.716 7.8468-31.1176 2.254 14.5216 4.331 22.2542 9.529 35.3h-5.172c1.906 5.7219 4.304 11.138 7.819 18.0422h-5.946c1.989 4.3061 4.378 8.4844 7.533 13.3094 1.348-2.6432 2.489-5.1849 3.503-7.8336h-4.737c2.773-6.211 4.653-11.1544 6.161-16.6272h-4.102c3.985-11.4085 5.614-18.5405 7.412-32.5314 1.753 13.3827 3.369 20.5088 7.412 32.5314h-4.023c1.482 5.2731 3.348 10.2644 6.082 16.6272h-4.625c1.014 2.6019 2.162 5.1533 3.524 7.8552 2.006-4.3549 3.448-8.0473 4.635-12.0789h-3.711c3.606-9.6608 5.079-15.7003 6.706-27.5479 1.586 11.3326 3.048 17.367 6.706 27.5479h-3.64c1.306 4.3484 2.941 8.4706 5.31 13.6596 3.283-7.6481 4.634-12.4725 6.124-21.8886 1.461 9.0547 2.807 13.8761 6.176 22.0106h-3.352c1.235 3.568 2.79 6.945 5.068 11.25h-3.854c1.627 3.39 3.669 6.653 6.599 10.761h-4.267c.7 1.33 1.461 2.672 2.301 4.062 1.879-2.555 3.281-4.778 4.447-7.157h-3.383c1.98-3.462 3.323-6.218 4.4-9.269h-2.929c2.846-6.359 4.01-10.335 5.294-18.1344 1.252 7.4604 2.406 11.4324 5.294 18.1344h-2.873c1.059 2.94 2.391 5.722 4.344 9.269h-3.304c1.395 2.793 3.145 5.481 5.657 8.866h-3.658c.561 1.025 1.168 2.058 1.833 3.125 1.408-1.911 2.483-3.611 3.389-5.42h-2.819c1.65-2.828 2.769-5.079 3.667-7.571h-2.442c2.372-5.194 3.342-8.442 4.412-14.812 1.03 6.015 1.98 9.254 4.319 14.601 2.522-5.347 3.546-8.586 4.657-14.601 1.153 6.37 2.198 9.618 4.756 14.812h-2.632c.968 2.492 2.174 4.743 3.953 7.571h-3.039c.976 1.809 2.135 3.509 3.653 5.42.717-1.067 1.371-2.1 1.976-3.125h-3.943c2.708-3.385 4.594-6.073 6.098-8.866h-3.561c2.105-3.547 3.541-6.329 4.683-9.269h-3.098c3.113-6.702 4.357-10.674 5.707-18.1344 1.385 7.7994 2.639 11.7754 5.708 18.1344h-3.159c1.162 3.051 2.609 5.807 4.744 9.269h-3.647c1.258 2.379 2.768 4.602 4.795 7.157.905-1.39 1.725-2.732 2.479-4.062h-4.599c3.158-4.108 5.359-7.371 7.114-10.761h-4.155c2.456-4.305 4.132-7.682 5.463-11.25h-3.613c3.632-8.1345 5.083-12.9559 6.658-22.0106 1.607 9.4161 3.063 14.2405 6.602 21.8886 2.554-5.189 4.316-9.3112 5.724-13.6596h-3.923c3.943-10.1809 5.519-16.2153 7.229-27.5479 1.753 11.8476 3.342 17.8871 7.229 27.5479h-4c1.279 4.0316 2.833 7.724 4.996 12.0789 1.469-2.7019 2.706-5.2533 3.8-7.8552h-4.986c2.947-6.3628 4.958-11.3541 6.556-16.6272h-4.337c4.359-12.0226 6.1-19.1487 7.991-32.5314 1.938 13.9909 3.694 21.1229 7.99 32.5314h-4.422c1.626 5.4728 3.653 10.4162 6.641 16.6272h-5.106c1.456 3.5265 3.153 6.8633 5.3 10.5029 1.295-2.082 2.422-4.0854 3.436-6.1223h-5.505c3.254-5.9296 5.475-10.5811 7.239-15.4951h-4.788c4.812-11.2041 6.735-17.845 8.822-30.3165 2.14 13.0383 4.079 19.6847 8.823 30.3165h-4.882c1.098 3.1204 2.362 6.0561 3.934 9.1908 2.319-5.3352 3.968-9.8076 5.318-14.7035h-4.105c3.989-11.4085 5.62-18.5405 7.419-32.5314 1.322 10.0765 2.565 16.6059 4.826 24.3493.38-2.1238.738-4.4085 1.103-6.9623 1.443 10.2887 2.768 16.1971 5.503 23.9009 2.356-7.7038 3.497-13.6122 4.739-23.9009 1.395 11.3326 2.681 17.367 5.897 27.5479h-3.2c.73 2.7653 1.577 5.4392 2.633 8.354 1.44-4.3252 2.337-8.4749 3.294-14.6511.989 6.2576 1.923 10.4412 3.529 15.1718 1.179-3.0468 2.112-5.8663 2.916-8.8747h-3.369c3.273-9.6608 4.611-15.7003 6.088-27.5479 1.44 11.3326 2.767 17.367 6.088 27.5479h-3.305c.954 3.4961 2.1 6.846 3.63 10.7216.975-2.7149 1.76-5.2606 2.442-7.9653h-3.053c2.967-9.2724 4.179-15.0691 5.517-26.4404 1.005 8.3743 1.949 13.7344 3.704 20.2171 1.009-3.0208 1.84-5.897 2.571-8.9365h-3.58c3.478-11.4085 4.9-18.5405 6.469-32.5314 1.46 12.7686 2.81 19.8416 5.995 30.9061 2.218-7.0688 3.454-13.2826 4.785-23.1785 1.71 12.4715 3.286 19.1124 7.229 30.3165h-3.923c1.177 4.0014 2.602 7.8288 4.53 12.3139.581-1.831 1.089-3.6073 1.548-5.4231h-3.065c3.08-10.1809 4.311-16.2153 5.647-27.5479 1.37 11.8476 2.611 17.8871 5.647 27.5479h-3.125c.746 3.0084 1.611 5.8279 2.704 8.8748 1.49-4.7307 2.357-8.9143 3.274-15.1719.888 6.1762 1.72 10.3259 3.056 14.6511.979-2.9148 1.765-5.5887 2.443-8.354h-2.97c2.984-10.1809 4.177-16.2153 5.471-27.5479 1.152 10.2887 2.211 16.1971 4.396 23.9009 2.537-7.7038 3.766-13.6122 5.104-23.9009.339 2.5538.671 4.8385 1.023 6.9623 2.098-7.7433 3.251-14.2728 4.477-24.3493 1.074 9.0042 2.084 15.1675 3.653 21.4582 3.936-10.1141 5.807-17.716 7.847-31.1176 2.254 14.5216 4.331 22.2542 9.529 35.3h-5.172c1.906 5.7219 4.304 11.138 7.819 18.0422h-5.946c1.989 4.3061 4.378 8.4844 7.533 13.3094 1.348-2.6433 2.489-5.1849 3.503-7.8336h-4.737c2.773-6.211 4.653-11.1544 6.161-16.6272h-4.102c3.985-11.4085 5.614-18.5405 7.412-32.5314 1.753 13.3827 3.369 20.5088 7.412 32.5314h-4.023c1.482 5.2731 3.348 10.2644 6.082 16.6272h-4.625c1.014 2.6019 2.162 5.1533 3.524 7.8552 2.006-4.3549 3.448-8.0473 4.635-12.0789h-3.711c3.606-9.6608 5.079-15.7003 6.706-27.5479 1.586 11.3326 3.048 17.367 6.706 27.5479h-3.64c1.306 4.3484 2.941 8.4706 5.31 13.6596 3.283-7.6481 4.634-12.4725 6.124-21.8886 1.461 9.0547 2.807 13.8761 6.176 22.0106h-3.352c1.235 3.568 2.79 6.945 5.068 11.25h-3.854c1.627 3.39 3.669 6.653 6.599 10.761h-4.267c.7 1.33 1.461 2.672 2.301 4.062 1.879-2.555 3.281-4.778 4.447-7.157h-3.383c1.98-3.462 3.323-6.218 4.4-9.269h-2.929c2.846-6.359 4.01-10.335 5.294-18.1344 1.252 7.4604 2.406 11.4324 5.294 18.1344h-2.873c1.059 2.94 2.391 5.722 4.344 9.269h-3.304c1.395 2.793 3.145 5.481 5.657 8.866h-3.658c.561 1.025 1.168 2.058 1.833 3.125 1.408-1.911 2.483-3.611 3.389-5.42h-2.819c1.65-2.828 2.769-5.079 3.667-7.571h-2.442c2.372-5.194 3.342-8.442 4.412-14.812 1.03 6.015 1.98 9.254 4.319 14.601 2.522-5.347 3.546-8.586 4.657-14.601 1.153 6.37 2.198 9.618 4.756 14.812h-2.632c.968 2.492 2.174 4.743 3.953 7.571h-3.039c.976 1.809 2.135 3.509 3.653 5.42.717-1.067 1.371-2.1 1.976-3.125h-3.943c2.708-3.385 4.594-6.073 6.098-8.866h-3.561c2.105-3.547 3.541-6.329 4.683-9.269h-3.098c3.113-6.702 4.357-10.674 5.707-18.1344 1.385 7.7994 2.639 11.7754 5.708 18.1344h-3.159c1.162 3.051 2.609 5.807 4.744 9.269h-3.647c1.258 2.379 2.768 4.602 4.795 7.157.905-1.39 1.725-2.732 2.479-4.062h-4.599c3.158-4.108 5.359-7.371 7.114-10.761h-4.155c2.456-4.305 4.132-7.682 5.464-11.25h-3.614c3.632-8.1345 5.083-12.9559 6.658-22.0106 1.607 9.4161 3.063 14.2405 6.602 21.8886 2.554-5.189 4.316-9.3112 5.724-13.6596h-3.924c3.944-10.1809 5.52-16.2153 7.23-27.5479 1.753 11.8476 3.342 17.8871 7.229 27.5479h-4c1.279 4.0316 2.833 7.724 4.996 12.079 1.469-2.702 2.706-5.2534 3.8-7.8553h-4.986c2.947-6.3628 4.958-11.3541 6.556-16.6272h-4.337c4.359-12.0226 6.1-19.1487 7.991-32.5314 1.938 13.9909 3.694 21.1229 7.99 32.5314h-4.422c1.626 5.4728 3.653 10.4162 6.641 16.6272h-5.106c1.456 3.5265 3.153 6.8633 5.3 10.5029 1.295-2.082 2.422-4.0854 3.436-6.1223h-5.505c3.254-5.9296 5.475-10.5811 7.239-15.4951h-4.789c4.813-11.2041 6.736-17.845 8.823-30.3165 2.14 13.0383 4.079 19.6847 8.823 30.3165h-4.882c1.098 3.1204 2.362 6.0561 3.934 9.1907 2.319-5.3351 3.968-9.8075 5.318-14.7034h-4.105c3.989-11.4085 5.62-18.5405 7.419-32.5314 1.322 10.0765 2.565 16.6059 4.826 24.3492.38-2.1237.738-4.4084 1.103-6.9622 1.443 10.2887 2.768 16.1971 5.503 23.9009 2.356-7.7038 3.497-13.6122 4.739-23.9009 1.395 11.3326 2.681 17.367 5.897 27.5479h-3.2c.73 2.7653 1.577 5.4392 2.633 8.354 1.44-4.3252 2.337-8.4749 3.294-14.6511.989 6.2576 1.923 10.4412 3.529 15.1718 1.179-3.0468 2.112-5.8663 2.916-8.8747h-3.369c3.273-9.6608 4.611-15.7003 6.088-27.5479 1.44 11.3326 2.767 17.367 6.088 27.5479h-3.305c1.06 3.8862 2.358 7.5917 4.157 12.0394.844-2.2414 1.547-4.3533 2.165-6.5268h-3.17c3.186-9.3623 4.459-14.9115 5.84-25.3329 1.293 9.9421 2.475 15.4365 5.058 23.0724.736-2.8156 1.332-5.8127 1.948-9.5492.998 6.1762 1.934 10.3259 3.436 14.6511 1.101-2.9148 1.985-5.5887 2.747-8.354h-3.339c3.356-10.1809 4.697-16.2153 6.152-27.5479 1.296 10.2886 2.486 16.1971 4.943 23.9008 2.854-7.7037 4.236-13.6122 5.741-23.9008.38 2.5538.755 4.8385 1.15 6.9623 2.359-7.7433 3.656-14.2728 5.035-24.3493 1.877 13.9909 3.578 21.1229 7.739 32.5314h-4.283c1.409 4.8959 3.129 9.3683 5.548 14.7035 1.64-3.1347 2.958-6.0704 4.104-9.1908h-5.093c4.949-10.6318 6.971-17.2782 9.204-30.3165 2.177 12.4715 4.183 19.1124 9.203 30.3165h-4.995c1.532 4.0891 3.393 7.9965 5.93 12.6097.081-.2315.16-.4624.238-.6931l.216-5.0258h-2.067c3.273-9.6608 4.611-15.7003 6.088-27.5479.937 7.3739 1.826 12.5046 3.248 17.9941l1.003-8.3346.749 14.4681c.337 1.0933.699 2.2284 1.088 3.4203h-.911l.45 8.6852c.25.6645.512 1.3421.786 2.0365.335-.932.647-1.844.94-2.7494l.45-5.216h-2.001c1.211-3.7853 2.13-6.9913 2.884-10.2339l2.065-23.9341.443 8.7769c.042-.3445.083-.6942.125-1.0493.898 7.477 1.746 12.5511 3.167 18.1668l.871-6.8862h-1.343c.949-3.1116 1.745-5.9051 2.432-8.6064l1.805-14.2655.196 5.0172c.758-4.2412 1.384-8.8677 2.036-14.6767 1.46 12.7685 2.81 19.8415 5.995 30.906.667-2.1244 1.245-4.1716 1.763-6.2648l1.51-26.5731.519 16.4384c.336-2.078.662-4.3143.993-6.7789 1.71 12.4715 3.286 19.1124 7.229 30.3165h-3.923c1.177 4.0014 2.602 7.8288 4.531 12.3138.58-1.8309 1.088-3.6073 1.547-5.423h-3.065c3.08-10.1809 4.311-16.2153 5.647-27.5479 1.37 11.8476 2.611 17.8871 5.647 27.5479h-3.125c.3 1.2087.619 2.3869.964 3.5617l.036-.1994.131.7615c.471 1.5611.99 3.1236 1.573 4.751 1.49-4.7307 2.357-8.9143 3.274-15.1719.888 6.1762 1.72 10.3259 3.056 14.6511.979-2.9148 1.765-5.5887 2.443-8.354h-2.97c2.985-10.1809 4.177-16.2153 5.471-27.5479 1.327 11.8476 2.529 17.8871 5.471 27.5479h-3.028c1.025 4.2643 2.281 8.1491 4.069 12.8396 1.656-3.7651 3.107-7.3262 4.409-10.8493h-6.095c4.186-8.3448 7.102-14.9734 9.427-21.8598h-5.506c3.255-8.7455 5.476-15.6058 7.24-22.8535h-4.789c4.813-16.5248 6.737-26.3193 8.824-44.7134v156h-4.522-8-23-8-9-.278-9.702-5.786-29.238-13.495-9.42-13.071-4.499-7.871-2.801-6.196-2.428-7.547-4.312-12.531-9.03-12.936-19.405-8.625-8.624-8.624-11.859-3.234-14.015-9.951-17-8-13-3-11-8-8-8-18-12-16-4-4-7-8-9-.278-9.702-9.703-8.624-7.547-4.312-12.531-9.03-12.936-19.405-8.625-8.624-8.624-11.859-3.234-14.015-9.951-17-8-13-3-11-8-8-8-18-12-16-4-4-7-8-9-6.5728-2.4272-11zm501.517-36.866h2.202.193 2.389c-.669 1.69-1.46 3.316-2.482 5.14-.947-1.824-1.681-3.45-2.302-5.14zm.867 7.571h.014 2.739.229c-.465.847-.975 1.682-1.547 2.54-.53-.858-1.003-1.693-1.435-2.54zm12.5 20.737c-.166.206-.334.413-.506.62-.157-.206-.312-.413-.464-.62zm-.979-13.496c-.112.157-.225.314-.339.472-.097-.157-.192-.314-.286-.472zm-312.186 13.7c.055-.068.11-.136.165-.204h-.97c.152.207.307.414.464.62.115-.139.229-.278.341-.416zm-1.153-13.228c.114-.158.227-.315.339-.472h-.625c.094.158.189.315.286.472zm-9.747-5.173c-.53-.858-1.003-1.693-1.435-2.54h.014 2.739.229c-.465.847-.975 1.682-1.547 2.54zm0-4.971c1.022-1.824 1.813-3.45 2.482-5.14h-2.389-.193-2.202c.621 1.69 1.355 3.316 2.302 5.14zm303.959 10.144c-.106-.158-.211-.315-.314-.472h.58c-.048.087-.097.173-.146.26-.039.071-.08.141-.12.212zm-.753 13.644c-.159-.207-.316-.414-.469-.62h.9c-.141.207-.285.414-.431.62zm-313 0c.146-.206.29-.413.431-.62h-.9c.153.206.31.413.469.62zm.753-13.644c.09-.157.178-.314.266-.472h-.58c.103.157.208.314.314.472zm-15.655 12.3c.283-.397.557-.795.824-1.196h-1.697c.284.397.574.795.873 1.196zm-1.622-12.594.092-.135h-.175zm2.486-3.938c.229-.396.45-.791.665-1.186h-1.425c.247.39.5.786.76 1.186zm-17.014-12.962c.462-.753.894-1.496 1.301-2.24h-2.358c.339.743.691 1.488 1.057 2.24zm2.344-4.259c.08-.165.159-.331.238-.497h-.535c.098.164.197.33.297.497zm-2.075-3.575c1.457-2.86 2.564-5.417 3.499-8.172h-3.309l.137.298h-4.185c1.079 2.592 2.326 5.124 3.858 7.874zm-16.058-.582c.233-.418.459-.832.679-1.244h-1.218c.176.414.356.829.539 1.244zm2.502-4.915c.361-.786.703-1.575 1.031-2.377h-2.314c.409.776.836 1.567 1.283 2.377zm-19.764 34.451c.204-.379.405-.759.603-1.14h-1.357c.247.38.499.76.754 1.14zm.503-28.305c.376-.826.738-1.65 1.088-2.475h-2.496c.453.816.922 1.64 1.408 2.475zm-2.737-4.931c.327-.564.644-1.119.952-1.666h-1.811c.28.554.566 1.109.859 1.666zm-16.283-33.1553c-.406-1.312-.7824-2.5754-1.1336-3.8106h2.4724c-.4214 1.2906-.8654 2.5542-1.3388 3.8106zm-2.8311 3.0802h1.6062c-.3172.7585-.6472 1.5204-.9914 2.29-.2127-.7561-.4172-1.5178-.6148-2.29zm-12.6319 26.4831c-.3317.856-.6793 1.699-1.0465 2.539-.3162-.84-.6154-1.683-.9011-2.539zm-1.0465-7.186c.8761-2.3147 1.6124-4.5467 2.2671-6.8936h-1.192-2.3235-.7037c.5637 2.3469 1.1978 4.5789 1.9521 6.8936zm-9.9522 8.266h1.6042c-.27.757-.5529 1.512-.8511 2.272-.266-.749-.5158-1.502-.7531-2.272zm-5.8854 2.759c-.3779-.917-.7327-1.833-1.0689-2.759h2.0096c-.2913.926-.6026 1.839-.9407 2.759zm-11.0268 1.9c.531-1.204 1.0179-2.378 1.4699-3.548h-2.732c.3902 1.2.8077 2.373 1.2621 3.548zm1.7403-4.259c.1845-.492.3632-.985.5367-1.48h-1.0838c.1764.485.3587.978.5471 1.48zm-10.9388-11.3359h1.9643c-.2758 1.0771-.5711 2.1495-.8913 3.2388-.3782-1.0711-.7343-2.1459-1.073-3.2388zm-9.4019 4.7732c.049-.131.0977-.2619.1459-.3926h-.2931c.0487.1311.0978.262.1472.3926zm-.0003-11.0679c.5239-1.6616.9982-3.2538 1.433-4.8198h-2.8683c.4385 1.639.9117 3.2271 1.4353 4.8198zm1.8096-6.2072c.365-1.3756.7014-2.7407 1.0165-4.1253h-2.3338c.4039 1.3254.8409 2.6912 1.3173 4.1253zm-14.1068 17.6885h3.1725c-.5116 1.3078-1.0612 2.608-1.66 3.9303-.5289-1.3147-1.0318-2.6211-1.5125-3.9303zm-13.7854-17.3032c.2544-.7055.5008-1.4114.7401-2.1203h-1.67994c.30401.7017.61704 1.4078.93984 2.1203zm-2.64509-6.2543c.70929-1.9925 1.35585-3.8858 1.95045-5.7223h-4.01704c.64144 1.9346 1.32545 3.8277 2.06659 5.7223zm523.68129 72.2328c-.306.397-.619.795-.941 1.196-.305-.397-.6-.795-.888-1.196zm.897-11.533-.09.135-.098-.135zm-1.95-4.989c-.266.39-.539.786-.82 1.186-.246-.396-.485-.791-.717-1.186zm18.661-14.016c-.364.743-.744 1.488-1.139 2.24-.498-.753-.963-1.496-1.402-2.24zm-3.345-2.516c-.106.164-.212.33-.32.497-.087-.165-.172-.331-.257-.497zm6.075-10.952c-1.163 2.592-2.507 5.124-4.159 7.874-1.571-2.86-2.764-5.417-3.772-8.172h3.568l-.148.298zm13.734 6.048c-.19.414-.384.829-.581 1.244-.251-.418-.495-.832-.732-1.244zm-1.895-6.048c-.441.776-.902 1.567-1.384 2.377-.388-.786-.757-1.575-1.11-2.377zm20.644 9.346c-.146.269-.295.538-.445.808-.138-.27-.275-.539-.41-.808zm131.416-9.346-.05 1.157c-.256-.388-.505-.774-.749-1.157zm-.902-5.4753c-.399 1.0392-.826 2.1037-1.287 3.2102-.631-1.0717-1.222-2.1363-1.779-3.2102zm-14.962 0c-.723 1.4167-1.497 2.8005-2.343 4.1883-.772-1.4199-1.481-2.8055-2.138-4.1883zm-3.368-4.3806c-.542.9873-1.118 2.0005-1.73 3.0505-.456-1.0089-.887-2.0216-1.299-3.0505zm-94.22 0c.52.9873 1.072 2.0005 1.659 3.0504.437-1.0088.851-2.0215 1.245-3.0504zm1.067 4.3806h-4.295c.693 1.4167 1.435 2.8005 2.246 4.1883.74-1.42 1.419-2.8055 2.049-4.1883zm73.255-1.7108c.985-2.3146 1.814-4.5466 2.55-6.8935h-1.341-2.613-.791c.634 2.3469 1.347 4.5789 2.195 6.8935zm1.177 7.1861c-.373.856-.764 1.699-1.177 2.539-.355-.84-.692-1.683-1.013-2.539zm-55.452 0c-.308.857-.631 1.699-.972 2.539-.396-.84-.77-1.682-1.128-2.539zm1.133-14.0796c-.608 2.3469-1.291 4.579-2.105 6.8936-.944-2.3146-1.738-4.5467-2.444-6.8936h1.285 2.505zm162.592 14.0796c-.445.996-.903 2.008-1.378 3.037-.387-1.004-.748-2.011-1.091-3.037zm-9.915 1.08c-.191.533-.387 1.066-.591 1.6l-.435-.84-.217.372c-.124-.374-.244-.751-.362-1.132zm-6.549 0c-.094.298-.19.594-.288.89l-.153-.89zm-42.881 4.475c-.058-.123-.116-.246-.173-.368l-.155-2.996h.618zm-9.464-18.1985c.136-.475.269-.9531.398-1.4361h-.515zm42.216 13.8605c.149-.405.296-.81.438-1.217h-1.058c.125.251.252.502.381.754.079.154.158.308.239.463zm-1.994-4.0996c.329-.8901.639-1.7518.933-2.5927h-2.048c.353.8674.724 1.7288 1.115 2.5927zm-11.149-23.6005h-2.516c.34 1.3845.703 2.7496 1.096 4.1252.514-1.4341.985-2.7998 1.42-4.1252zm-1.014 5.5127.015.0479.004-.0479zm1.545 4.8198c-.443-1.3039-.853-2.565-1.236-3.8043v-1.0155h2.229l-.128 2.2491c-.274.8613-.562 1.7153-.865 2.5707zm0 11.068c-.053-.1311-.106-.262-.158-.3927h.271l-.008.1329-.064.1579zm-529.293 50.2846c.322-.401.635-.799.941-1.196h-1.829c.288.401.583.799.888 1.196zm1.748-12.594.09-.135h-.188zm-2.68-3.938c.281-.4.554-.796.82-1.186h-1.537c.232.395.471.79.717 1.186zm263.436 15.336c-.267.401-.541.799-.824 1.196-.299-.401-.589-.799-.873-1.196zm-2.354-11.533-.092.135-.083-.135zm3.059-4.989c-.215.395-.436.79-.665 1.186-.26-.4-.513-.796-.76-1.186zm-245.799-11.776c.395-.752.775-1.497 1.139-2.24h-2.541c.439.744.904 1.487 1.402 2.24zm-2.39-4.47c.062-.096.123-.191.184-.286h-.577c.085.166.17.332.257.497.045-.071.091-.141.136-.211zm1.896-11.536-.148.298h4.511c-1.163 2.592-2.507 5.124-4.159 7.874-1.571-2.86-2.764-5.417-3.772-8.172zm229.915 13.766c-.407.744-.839 1.487-1.301 2.24-.366-.752-.718-1.497-1.057-2.24zm1.281-2.516c-.079.166-.158.332-.238.497-.1-.167-.199-.333-.297-.497zm1.186-11.25h-3.309l.137.298h-4.185c1.079 2.592 2.326 5.124 3.858 7.874 1.457-2.86 2.564-5.417 3.499-8.172zm-216.18.298c-.441.776-.902 1.567-1.384 2.377-.388-.786-.757-1.575-1.11-2.377zm1.895 6.048c-.19.414-.384.829-.581 1.244-.251-.418-.495-.832-.732-1.244zm198.261-6.048h-2.314c.409.776.836 1.567 1.283 2.377.361-.786.703-1.575 1.031-2.377zm-3.533 7.292c-.183-.415-.363-.83-.539-1.244h1.218c-.22.412-.446.826-.679 1.244zm-176.424 2.862c.051-.091.101-.182.152-.273.098-.178.196-.357.293-.535h-.855l.11.219.08.157.113.222zm159.765 25.534c-.198.381-.399.761-.603 1.14-.255-.38-.507-.76-.754-1.14zm.988-29.64c-.35.825-.712 1.649-1.088 2.475-.486-.835-.955-1.659-1.408-2.475zm-3.825-2.456c-.293-.557-.579-1.112-.859-1.666h1.811c-.308.547-.625 1.102-.952 1.666zm-138.519-13.4479h2.904c-.394 1.0289-.808 2.0416-1.245 3.0505-.587-1.05-1.138-2.0632-1.659-3.0505zm-.982 8.5689c.74-1.4199 1.419-2.8055 2.049-4.1883h-4.295c.693 1.4167 1.435 2.8005 2.246 4.1883zm122.084-32.0869c.352 1.2352.728 2.4985 1.134 3.8105.473-1.2564.917-2.5199 1.339-3.8105zm-.091 6.8908h-1.606c.198.7722.402 1.5339.615 2.29.344-.7696.674-1.5315.991-2.29zm-100.59 12.4035h-2.505-1.285c.706 2.3469 1.5 4.5789 2.444 6.8936.814-2.3147 1.497-4.5467 2.105-6.8936zm87.573 0h-1.192-2.324-.704c.564 2.3469 1.198 4.5789 1.953 6.8936.876-2.3147 1.612-4.5467 2.267-6.8936zm-88.919 16.6186c-.396-.84-.77-1.683-1.128-2.539h2.1c-.308.856-.631 1.699-.972 2.539zm86.652 0c.367-.84.714-1.682 1.046-2.539h-1.948c.286.857.585 1.699.902 2.539zm-75.923-1.459c-.256.77-.525 1.523-.812 2.273-.321-.761-.626-1.516-.917-2.273zm65.97 0h1.604c-.27.757-.552 1.512-.851 2.272-.266-.749-.515-1.502-.753-2.272zm-58.473 0c-.362.926-.745 1.842-1.152 2.759-.364-.92-.7-1.833-1.014-2.759zm52.588 2.759c-.378-.917-.733-1.833-1.069-2.759h2.01c-.292.926-.603 1.839-.941 2.759zm-43.729-2.359c.204-.502.4-.995.59-1.48h-1.168c.187.495.38.988.578 1.48zm1.877 4.259c-.573-1.204-1.098-2.378-1.585-3.548h2.945c-.421 1.2-.871 2.373-1.36 3.548zm30.67-8.6215c.329-.8902.639-1.7518.933-2.5928h-2.049c.354.8674.725 1.7288 1.116 2.5928zm1.994 4.0995c-.212-.409-.419-.814-.62-1.217h1.058c-.143.407-.289.812-.438 1.217zm-24.866-11.0729c.298 1.0771.616 2.1495.961 3.2388.408-1.0711.792-2.1459 1.157-3.2388zm9.207-16.6272h2.516c-.435 1.3254-.906 2.6912-1.42 4.1253-.393-1.3756-.756-2.7407-1.096-4.1253zm4.594 5.5127h-3.092c.469 1.566.98 3.1582 1.545 4.8198.564-1.5927 1.075-3.1808 1.547-4.8198zm-1.547 15.8877c-.053-.131-.106-.2619-.158-.3926h.316c-.052.1311-.105.262-.158.3926zm308.041 6.1627c.267.77.548 1.523.847 2.272.336-.76.654-1.515.957-2.272zm-34.138 2.272c.287-.749.556-1.502.812-2.272h-1.729c.291.757.596 1.512.917 2.272zm28.809-11.919h-1.815c.274.9849.564 1.9478.875 2.906.341-.9809.652-1.9416.94-2.906zm-21.652 12.406c.407-.917.79-1.833 1.152-2.759h-2.166c.314.926.65 1.839 1.014 2.759zm11.601-3.839c-.344.86-.709 1.745-1.098 2.665-.378-.888-.733-1.773-1.07-2.665zm-.345 4.381h2.154c-.319.809-.654 1.611-1.011 2.417-.402-.82-.782-1.623-1.143-2.417z" fill="url(#a)" fill-rule="evenodd"/></svg>