<svg fill="none" height="55" viewBox="0 0 83 55" width="83" xmlns="http://www.w3.org/2000/svg"><path d="m1.43722 30.5411h5.03053l24.42125-25.8701h-5.4121z" fill="#434141"/><path d="m47.7879 53.5368h-40.60174v-27.6667l16.88744-16.88742h33.7749l21.5584 21.55842v19.7619z" fill="#576598"/><path clip-rule="evenodd" d="m16.8875 16.1688 2.8744-2.8744h42.3983l2.8744 2.8744zm-5.749 5.7489 2.8745-2.8744h53.8961l2.8745 2.8744zm-3.95234 5.749v-1.7966l1.07793-1.0779h65.39391l2.8745 2.8745zm0 5.7489v-2.8745h72.22074v2.8745zm0 5.7489v-2.8745h72.22074v2.8745zm0 5.7489v-2.8744h72.22074v2.8744zm0 5.7489v-2.8744h72.22074v2.5151l-3.5131.3593zm52.09954-40.2424h-36.6493l1.4372-1.43722h33.7749z" fill="#2b3d57" fill-rule="evenodd"/><path d="m10.7792 22.277 2.8745-2.8744v34.1342h-2.8745z" fill="#4ada84"/><path d="m43.1169 24.0736h4.31169v29.4632h-4.31169z" fill="#4ada84"/><path d="m76.1732 33.4156h3.59307v16.5281h-3.59307z" fill="#4ada84"/><path d="m83 34.4935h-36.29l-22.9957-29.8225h36.6493z" fill="#fdfdfd"/><path d="m.00000381 30.5411h1.44887619l24.42122-25.8701h-1.8304z" fill="#fdfdfd"/><path d="m7.18616 52.0996h40.2424v2.15584h-40.2424z" fill="#2c2c2c"/><path d="m46.71 52.0996 33.0562-3.5931v2.1558l-33.0562 3.5931z" fill="#2c2c2c"/><circle cx="25.5108" cy="25.1515" fill="#292a2e" r="6.10822"/><circle cx="25.5108" cy="25.1515" fill="#474d59" r="4.671"/><path d="m20.1212 35.5714h11.4529l.7636 12.9351h-12.2165z" fill="#5385b4"/><g fill="#255757"><path d="m21.5584 37.0087h3.3685l.2246 4.3116h-3.5931z"/><path d="m21.5584 42.7576h3.3685l.2246 4.3117h-3.5931z"/><path d="m30.9004 47.0693h-4.0422l-.2695-4.3117h4.3117z"/><path d="m26.5887 37.0087h4.0423l.2694 4.3116h-4.3117z"/></g><path d="m56.0519 38.0866 7.1862-.3593v12.5757l-7.1862.7186z" fill="#5385b4"/><path d="m56.7706 38.7467 5.7489-.3008v12.0326l-5.7489.9025z" fill="#2c2c2c"/><path d="m49.5844.359306 5.7489.718614v11.49788l-5.7489-5.74896z" fill="#28498a"/><path d="m49.5844.359307 5.7489.718613 5.0303-.359305-5.3896-.718615z" fill="#fff"/><path d="m55.3333 1.07792 5.0303-.359307v11.857187h-5.0303z" fill="#1f2880"/></svg>