<svg width="192" height="123" viewBox="0 0 192 123" fill="none" xmlns="http://www.w3.org/2000/svg">
<path d="M38.6212 18.6848C38.6212 18.6848 33.0321 14.1181 20.3862 15.0555V33.6701C20.3862 33.6701 41.516 32.4741 38.6212 18.6848" fill="#342B6E"/>
<path d="M38.6212 18.6847C38.6212 18.6847 33.0321 14.1181 20.3862 15.0554V18.1007C24.1816 19.2234 30.8008 21.3514 32.992 23.1327C34.4456 24.3154 35.3034 26.3274 35.805 28.1461C38.1346 25.9581 39.5092 22.9141 38.6212 18.6847" fill="#2F2763"/>
<path d="M20.3862 15.0555V33.6701C20.3862 33.6701 23.7726 33.4768 27.6493 32.3635C28.7138 30.2901 29.3721 27.4421 29.3721 24.2994C29.3721 20.5074 28.4154 17.1475 26.9404 15.0581C25.0122 14.9008 22.8326 14.8741 20.3862 15.0555" fill="#972029"/>
<path d="M20.3862 33.4274C17.2268 33.4274 14.6559 29.3621 14.6559 24.3621C14.6559 19.3634 17.2268 15.2968 20.3862 15.2968C23.5455 15.2968 26.1159 19.3634 26.1159 24.3621C26.1159 29.3621 23.5455 33.4274 20.3862 33.4274Z" fill="#4D2D6E"/>
<path d="M22.3242 17.0168C22.3008 16.1781 21.4138 15.5128 20.3436 15.5315C19.2726 15.5515 18.4242 16.2461 18.4488 17.0835C18.4717 17.9221 19.0461 23.6954 20.1164 23.6768C21.1868 23.6594 22.3482 17.8555 22.3242 17.0168" fill="#9C9FCE"/>
<path d="M24.6846 22.8808C25.1217 22.5221 26.1794 21.6421 25.4758 20.4141C25.0383 19.6488 24.5622 18.8675 23.1169 20.4221C22.7445 20.8235 19.5253 23.8288 20.2987 24.4088C21.0721 24.9888 24.2482 23.2381 24.6846 22.8808Z" fill="#9C9FCE"/>
<path d="M15.9878 22.9074C15.5668 22.5634 14.6059 22.6714 15.1788 20.5034C15.3971 19.6794 16.0002 18.974 17.4012 20.474C17.7627 20.8594 20.872 23.7527 20.1586 24.3327C19.4444 24.914 16.4086 23.25 15.9878 22.9074Z" fill="#9C9FCE"/>
<path d="M22.5747 31.5034C22.5747 32.3407 21.7065 33.0221 20.6362 33.0221C19.5654 33.0221 18.6971 32.3407 18.6971 31.5034C18.6971 30.6647 19.5654 24.6767 20.6362 24.6767C21.7065 24.6767 22.5747 30.6647 22.5747 31.5034Z" fill="#9C9FCE"/>
<path d="M16.2622 26.4448C15.9002 26.8514 15.0264 27.8474 15.9617 28.9767C16.5436 29.6807 17.166 30.3955 18.2909 28.6861C18.5816 28.2448 21.1764 24.8901 20.2988 24.4088C19.4212 23.9288 16.6242 26.0381 16.2622 26.4448Z" fill="#9C9FCE"/>
<path d="M24.357 25.1994C25.5654 25.8101 26.7226 25.8488 25.7253 27.6528C25.3217 28.3835 25.0821 29.0875 23.4159 27.7808C22.9862 27.4435 19.3706 24.9715 19.9674 24.3088C20.5643 23.6461 23.857 24.9461 24.357 25.1994Z" fill="#9C9FCE"/>
<path d="M21.9283 24.362C21.9283 25.562 21.1449 26.5353 20.1788 26.5353C19.2127 26.5353 18.4304 25.562 18.4304 24.362C18.4304 23.162 19.2127 22.1887 20.1788 22.1887C21.1449 22.1887 21.9283 23.162 21.9283 24.362Z" fill="#812413"/>
<path d="M20.1663 22.1901C19.2059 22.1981 18.4304 23.1674 18.4304 24.3621C18.4304 25.3874 19.0039 26.242 19.7726 26.4714C20.733 26.462 21.5096 25.494 21.5096 24.2994C21.5096 23.2727 20.9351 22.4194 20.1663 22.1901Z" fill="#CE2409"/>
<path d="M20.6362 24.3621C20.6362 25.0407 20.1936 25.5914 19.6461 25.5914C19.1002 25.5914 18.6565 25.0407 18.6565 24.3621C18.6565 23.6834 19.1002 23.1327 19.6461 23.1327C20.1936 23.1327 20.6362 23.6834 20.6362 24.3621Z" fill="#CE5638"/>
<path d="M20.7054 32.4888C19.9294 32.4888 19.3007 31.7474 19.3007 30.8354C19.3007 30.4421 19.4039 30.3301 19.583 30.3301C19.8211 30.3301 20.193 30.5274 20.6362 30.5274C21.0783 30.5274 21.4961 30.3301 21.7731 30.3301C21.9815 30.3301 22.1107 30.4421 22.1107 30.8354C22.1107 31.7474 21.481 32.4888 20.7054 32.4888" fill="#BCBFE3"/>
<path d="M16.6289 28.6141C16.5873 28.6141 16.5393 28.6034 16.483 28.5807C16.1163 28.4367 15.9507 27.986 16.1138 27.5767C16.2419 27.2527 16.5357 27.0514 16.8335 27.0514C16.9138 27.0514 16.9941 27.0661 17.0717 27.0968C17.4378 27.2421 17.1914 27.5447 17.0283 27.954C16.8914 28.3007 16.8581 28.6141 16.6289 28.6141" fill="#BCBFE3"/>
<path d="M25.1107 27.7341C24.8493 27.7341 24.7097 26.958 24.0357 26.4714C23.3611 25.9834 22.1351 25.3407 22.6581 25.1394C22.6581 25.1394 23.3602 25.4101 24.0466 25.7301C24.4288 26.3861 24.8201 27.0381 25.2174 27.6874C25.1851 27.7167 25.1493 27.7341 25.1107 27.7341" fill="#BCBFE3"/>
<path d="M20.3862 33.1874C17.3602 33.1874 14.8977 29.2288 14.8977 24.3621C14.8977 19.4968 17.3602 15.5368 20.3862 15.5368C23.4127 15.5368 25.8747 19.4968 25.8747 24.3621C25.8747 29.2288 23.4127 33.1874 20.3862 33.1874ZM20.3862 15.0555C17.0883 15.0555 14.4149 19.2221 14.4149 24.3621C14.4149 29.5021 17.0883 33.6701 20.3862 33.6701C23.6841 33.6701 26.357 29.5021 26.357 24.3621C26.357 19.2221 23.6841 15.0555 20.3862 15.0555Z" fill="#85AFAF"/>
<path d="M51.8033 36.8221C51.8033 36.8221 46.2143 32.2568 33.5679 33.1928V51.8074C33.5679 51.8074 54.6987 50.6128 51.8033 36.8221Z" fill="#342B6E"/>
<path d="M51.8033 36.8221C51.8033 36.8221 46.2143 32.2567 33.5679 33.1927V36.2394C37.3637 37.3621 43.9829 39.4901 46.1736 41.2701C47.6283 42.4527 48.4856 44.4661 48.9867 46.2847C51.3168 44.0954 52.6913 41.0528 51.8033 36.8221Z" fill="#2F2763"/>
<path d="M33.5679 33.1928V51.8074C33.5679 51.8074 36.9553 51.6141 40.8315 50.5008C41.896 48.4288 42.5544 45.5808 42.5544 42.4368C42.5544 38.6461 41.5976 35.2861 40.1225 33.1954C38.1944 33.0381 36.0148 33.0114 33.5679 33.1928" fill="#972029"/>
<path d="M33.5679 51.5661C30.4091 51.5661 27.8383 47.4994 27.8383 42.5008C27.8383 37.5008 30.4091 33.4341 33.5679 33.4341C36.7278 33.4341 39.2982 37.5008 39.2982 42.5008C39.2982 47.4994 36.7278 51.5661 33.5679 51.5661Z" fill="#4D2D6E"/>
<path d="M35.5069 35.1541C35.4829 34.3154 34.596 33.6514 33.5257 33.6701C32.4549 33.6887 31.6064 34.3834 31.6299 35.2221C31.6544 36.0594 32.2277 41.8341 33.2987 41.8154C34.3689 41.7967 35.5304 35.9927 35.5069 35.1541" fill="#9C9FCE"/>
<path d="M37.8668 41.018C38.3039 40.6607 39.3616 39.7807 38.6586 38.5514C38.22 37.786 37.7444 37.006 36.2992 38.5594C35.9268 38.9607 32.7075 41.9674 33.481 42.5461C34.2544 43.1261 37.4304 41.3754 37.8668 41.018" fill="#9C9FCE"/>
<path d="M29.17 41.0448C28.7487 40.7008 27.7883 40.8087 28.3611 38.6407C28.5794 37.8167 29.183 37.1128 30.5846 38.6114C30.945 38.9981 34.055 41.8901 33.3408 42.4714C32.6268 43.0514 29.5903 41.3888 29.17 41.0448" fill="#9C9FCE"/>
<path d="M35.757 49.6407C35.757 50.4794 34.8887 51.1594 33.8179 51.1594C32.7482 51.1594 31.8794 50.4794 31.8794 49.6407C31.8794 48.802 32.7482 42.8141 33.8179 42.8141C34.8887 42.8141 35.757 48.802 35.757 49.6407Z" fill="#9C9FCE"/>
<path d="M29.4444 44.5821C29.082 44.9887 28.2086 45.9848 29.1435 47.1141C29.7258 47.8194 30.3482 48.5327 31.4736 46.8234C31.7638 46.3834 34.3586 43.0274 33.481 42.5461C32.6034 42.0674 29.8064 44.1767 29.4444 44.5821Z" fill="#9C9FCE"/>
<path d="M37.5398 43.3368C38.7477 43.9474 39.905 43.9861 38.9076 45.7914C38.504 46.5221 38.2644 47.2247 36.5982 45.9181C36.169 45.5807 32.5529 43.1101 33.1497 42.4461C33.7466 41.7834 37.0398 43.0834 37.5398 43.3368" fill="#9C9FCE"/>
<path d="M35.1107 42.5007C35.1107 43.7007 34.3274 44.6741 33.3611 44.6741C32.395 44.6741 31.6122 43.7007 31.6122 42.5007C31.6122 41.2994 32.395 40.3274 33.3611 40.3274C34.3274 40.3274 35.1107 41.2994 35.1107 42.5007" fill="#812413"/>
<path d="M33.3487 40.3288C32.3883 40.3368 31.6122 41.3048 31.6122 42.5008C31.6122 43.5261 32.1862 44.3794 32.955 44.6088C33.9154 44.6008 34.6919 43.6314 34.6919 42.4368C34.6919 41.4114 34.1174 40.5568 33.3487 40.3288" fill="#CE2409"/>
<path d="M33.8179 42.5007C33.8179 43.1794 33.3747 43.7287 32.8283 43.7287C32.2826 43.7287 31.8398 43.1794 31.8398 42.5007C31.8398 41.8207 32.2826 41.27 32.8283 41.27C33.3747 41.27 33.8179 41.8207 33.8179 42.5007Z" fill="#CE5638"/>
<path d="M32.8326 50.0648C32.6148 49.7728 32.483 49.3914 32.483 48.9714C32.483 48.5794 32.5862 48.4674 32.7654 48.4674C33.0034 48.4674 33.3752 48.6661 33.8179 48.6661C34.2611 48.6661 34.6783 48.4674 34.9554 48.4674C35.1643 48.4674 35.293 48.5794 35.293 48.9714C35.293 49.0354 35.2898 49.0968 35.284 49.1581C34.5351 49.4261 33.7138 49.7288 32.8326 50.0648" fill="#BCBFE3"/>
<path d="M29.8117 46.7514C29.7701 46.7514 29.7217 46.7421 29.6654 46.7194C29.2987 46.5741 29.1335 46.1248 29.2961 45.7141C29.4242 45.3914 29.7174 45.1887 30.0154 45.1887C30.0955 45.1887 30.1758 45.2034 30.2539 45.2341C30.6206 45.3794 30.3726 45.6821 30.2107 46.0914C30.0737 46.4394 30.0403 46.7514 29.8117 46.7514Z" fill="#BCBFE3"/>
<path d="M38.293 45.8701C38.0315 45.8701 37.8919 45.0954 37.2179 44.6087C36.5441 44.1221 35.3174 43.4781 35.8403 43.2767C35.8403 43.2767 36.1007 43.378 36.4602 43.5287C37.1883 44.4407 37.8283 45.2274 38.3497 45.858C38.3315 45.866 38.3127 45.8701 38.293 45.8701" fill="#BCBFE3"/>
<path d="M33.5679 51.3248C30.5425 51.3248 28.0799 47.3661 28.0799 42.5008C28.0799 37.6341 30.5425 33.6754 33.5679 33.6754C36.595 33.6754 39.057 37.6341 39.057 42.5008C39.057 47.3661 36.595 51.3248 33.5679 51.3248ZM33.5679 33.1928C30.2706 33.1928 27.5977 37.3594 27.5977 42.5008C27.5977 47.6408 30.2706 51.8074 33.5679 51.8074C36.8659 51.8074 39.5398 47.6408 39.5398 42.5008C39.5398 37.3594 36.8659 33.1928 33.5679 33.1928Z" fill="#85AFAF"/>
<path d="M144.511 104.758C144.511 104.758 137.775 99.2554 122.534 100.385V122.818C122.534 122.818 148 121.378 144.511 104.758" fill="#342B6E"/>
<path d="M144.511 104.758C144.511 104.758 137.775 99.2554 122.534 100.385V104.055C127.107 105.409 135.086 107.974 137.726 110.121C139.479 111.545 140.511 113.97 141.116 116.162C143.924 113.525 145.58 109.857 144.511 104.758" fill="#2F2763"/>
<path d="M122.534 100.385V122.818C122.534 122.818 126.616 122.586 131.287 121.243C132.571 118.745 133.364 115.314 133.364 111.525C133.364 106.955 132.211 102.906 130.434 100.387C128.11 100.198 125.482 100.166 122.534 100.385Z" fill="#972029"/>
<path d="M122.534 122.527C118.726 122.527 115.628 117.626 115.628 111.601C115.628 105.577 118.726 100.675 122.534 100.675C126.342 100.675 129.439 105.577 129.439 111.601C129.439 117.626 126.342 122.527 122.534 122.527Z" fill="#4D2D6E"/>
<path d="M125.646 101.862C122.536 102.923 120.198 107.305 120.198 112.538C120.198 116.79 121.744 120.473 123.99 122.278C127.1 121.217 129.439 116.835 129.439 111.601C129.439 107.349 127.894 103.666 125.646 101.862" fill="#392256"/>
<path d="M124.87 102.749C124.842 101.738 123.772 100.937 122.482 100.959C121.192 100.982 120.17 101.819 120.198 102.83C120.227 103.841 120.919 110.798 122.208 110.777C123.499 110.754 124.898 103.759 124.87 102.749" fill="#9C9FCE"/>
<path d="M127.715 109.815C128.242 109.383 129.516 108.323 128.668 106.842C128.14 105.921 127.567 104.981 125.824 106.853C125.376 107.337 121.496 110.959 122.428 111.658C123.362 112.357 127.187 110.246 127.715 109.815" fill="#9C9FCE"/>
<path d="M117.232 109.847C116.726 109.433 115.568 109.563 116.258 106.951C116.52 105.957 117.248 105.107 118.938 106.915C119.372 107.379 123.12 110.866 122.259 111.566C121.399 112.266 117.74 110.261 117.232 109.847" fill="#9C9FCE"/>
<path d="M125.171 120.207C125.171 121.218 124.126 122.038 122.835 122.038C121.544 122.038 120.499 121.218 120.499 120.207C120.499 119.197 121.544 111.981 122.835 111.981C124.126 111.981 125.171 119.197 125.171 120.207Z" fill="#9C9FCE"/>
<path d="M117.563 114.111C117.127 114.601 116.075 115.801 117.202 117.163C117.903 118.011 118.652 118.871 120.01 116.813C120.359 116.282 123.486 112.237 122.428 111.658C121.37 111.079 118 113.622 117.563 114.111Z" fill="#9C9FCE"/>
<path d="M127.319 112.61C128.776 113.346 130.171 113.394 128.968 115.567C128.482 116.447 128.194 117.295 126.184 115.721C125.668 115.314 121.31 112.335 122.03 111.537C122.748 110.738 126.718 112.306 127.319 112.61" fill="#9C9FCE"/>
<path d="M124.392 111.601C124.392 113.047 123.448 114.221 122.284 114.221C121.12 114.221 120.176 113.047 120.176 111.601C120.176 110.154 121.12 108.982 122.284 108.982C123.448 108.982 124.392 110.154 124.392 111.601Z" fill="#812413"/>
<path d="M122.27 108.983C121.112 108.994 120.176 110.161 120.176 111.601C120.176 112.838 120.868 113.867 121.795 114.142C122.952 114.131 123.887 112.965 123.887 111.525C123.887 110.289 123.196 109.259 122.27 108.983Z" fill="#CE2409"/>
<path d="M122.835 111.601C122.835 112.419 122.302 113.083 121.643 113.083C120.983 113.083 120.45 112.419 120.45 111.601C120.45 110.783 120.983 110.121 121.643 110.121C122.302 110.121 122.835 110.783 122.835 111.601Z" fill="#CE5638"/>
<path d="M122.919 121.395C121.983 121.395 121.226 120.503 121.226 119.402C121.226 118.929 121.35 118.794 121.566 118.794C121.852 118.794 122.302 119.031 122.835 119.031C123.368 119.031 123.871 118.794 124.206 118.794C124.456 118.794 124.612 118.929 124.612 119.402C124.612 120.503 123.854 121.395 122.919 121.395" fill="#BCBFE3"/>
<path d="M118.006 116.726C117.956 116.726 117.898 116.713 117.83 116.686C117.388 116.511 117.19 115.969 117.384 115.475C117.539 115.086 117.892 114.842 118.252 114.842C118.348 114.842 118.446 114.859 118.539 114.897C118.98 115.071 118.683 115.437 118.487 115.93C118.322 116.347 118.282 116.726 118.006 116.726" fill="#BCBFE3"/>
<path d="M128.228 115.663C127.912 115.663 127.744 114.729 126.932 114.142C126.12 113.555 124.642 112.781 125.272 112.538C125.272 112.538 128.276 113.698 128.494 114.221C128.712 114.743 128.543 115.663 128.228 115.663Z" fill="#BCBFE3"/>
<path d="M122.534 122.237C118.887 122.237 115.919 117.466 115.919 111.601C115.919 105.737 118.887 100.966 122.534 100.966C126.182 100.966 129.148 105.737 129.148 111.601C129.148 117.466 126.182 122.237 122.534 122.237ZM122.534 100.385C118.559 100.385 115.338 105.406 115.338 111.601C115.338 117.797 118.559 122.818 122.534 122.818C126.508 122.818 129.73 117.797 129.73 111.601C129.73 105.406 126.508 100.385 122.534 100.385Z" fill="#85AFAF"/>
<path d="M167.383 31.9727C167.383 31.9727 157.867 13.1914 148.378 11.4061C142.539 10.3074 141.215 35.6074 141.215 35.6074L167.383 31.9727Z" fill="#697CE4"/>
<path d="M39.8362 47.6247C39.8362 47.6247 9.20966 12.346 19.6769 1.87935C30.1445 -8.58865 105.355 32.1194 105.355 32.1194L39.8362 47.6247Z" fill="#445094"/>
<path d="M100.179 29.382C84.4843 21.2034 37.5898 -2.34198 22.9184 0.384691C20.0564 13.6727 45.0252 42.4367 45.0252 42.4367L100.179 29.382Z" fill="#5E6FCC"/>
<path d="M39.8361 47.6248C39.8361 47.6248 -2.51746 60.3914 0.777741 78.2248C4.07254 96.0581 72.3043 105.37 111.267 90.0581C150.228 74.7434 174.75 55.9608 174.75 55.9608C174.75 55.9608 186.38 22.2327 186.38 17.7741C186.38 13.3154 182.31 7.50075 169.903 15.0594C157.498 22.6194 145.286 34.0568 137.532 34.0568C129.779 34.0568 71.8203 17.9674 55.9252 19.9061C40.0304 21.8461 39.8361 47.6248 39.8361 47.6248" fill="#979CF0"/>
<path d="M186.38 17.7741C186.38 16.9287 186.232 16.0368 185.912 15.1941C181.879 27.6541 173.755 44.6581 157.743 56.5554C132.656 75.1941 70.3363 93.6434 28.683 94.2474C52.8487 99.5754 87.5016 99.3981 111.267 90.0581C150.228 74.7434 174.75 55.9607 174.75 55.9607C174.75 55.9607 186.38 22.2327 186.38 17.7741Z" fill="#8689D4"/>
<path d="M116.432 89.7727C116.432 89.7727 110.843 85.2074 98.1976 86.1434V104.758C98.1976 104.758 119.327 103.563 116.432 89.7727" fill="#342B6E"/>
<path d="M116.432 89.7727C116.432 89.7727 110.843 85.2074 98.1976 86.1434V89.1901C101.992 90.3127 108.612 92.4407 110.803 94.2221C112.258 95.4034 113.114 97.4167 113.616 99.2354C115.946 97.0461 117.319 94.0034 116.432 89.7727" fill="#2F2763"/>
<path d="M98.1976 86.1434V104.758C98.1976 104.758 101.584 104.566 105.459 103.451C106.524 101.378 107.183 98.5314 107.183 95.3874C107.183 91.5967 106.227 88.2367 104.752 86.1461C102.823 85.9887 100.643 85.9621 98.1976 86.1434Z" fill="#972029"/>
<path d="M98.1977 104.517C95.0377 104.517 92.467 100.45 92.467 95.4514C92.467 90.4527 95.0377 86.3847 98.1977 86.3847C101.356 86.3847 103.927 90.4527 103.927 95.4514C103.927 100.45 101.356 104.517 98.1977 104.517Z" fill="#4D2D6E"/>
<path d="M100.135 88.1061C100.112 87.2675 99.2244 86.6021 98.1537 86.6208C97.0844 86.6394 96.235 87.3341 96.259 88.1728C96.283 89.0115 96.8564 94.7861 97.927 94.7661C98.9977 94.7475 100.159 88.9448 100.135 88.1061Z" fill="#9C9FCE"/>
<path d="M102.495 93.9687C102.932 93.6114 103.99 92.7314 103.287 91.5034C102.848 90.7367 102.372 89.9567 100.927 91.5114C100.555 91.9114 97.3363 94.918 98.1096 95.498C98.883 96.078 102.059 94.3274 102.495 93.9687" fill="#9C9FCE"/>
<path d="M93.799 93.9954C93.3776 93.6514 92.4176 93.7594 92.9896 91.5927C93.207 90.7674 93.8123 90.0634 95.2123 91.5621C95.5736 91.9487 98.683 94.8421 97.9696 95.4221C97.2563 96.0034 94.219 94.3394 93.799 93.9954" fill="#9C9FCE"/>
<path d="M100.386 102.593C100.386 103.43 99.5176 104.11 98.447 104.11C97.3763 104.11 96.5083 103.43 96.5083 102.593C96.5083 101.753 97.3763 95.766 98.447 95.766C99.5176 95.766 100.386 101.753 100.386 102.593Z" fill="#9C9FCE"/>
<path d="M94.0736 97.5327C93.7109 97.9394 92.8376 98.9354 93.7722 100.066C94.3549 100.77 94.9776 101.483 96.1016 99.7741C96.3909 99.3341 98.9869 95.9781 98.1096 95.4981C97.2309 95.0167 94.4349 97.1274 94.0736 97.5327Z" fill="#9C9FCE"/>
<path d="M102.168 96.2874C103.376 96.8994 104.534 96.9381 103.536 98.7421C103.132 99.4714 102.892 100.175 101.227 98.8687C100.798 98.5327 97.1816 96.0607 97.779 95.3967C98.375 94.734 101.668 96.0354 102.168 96.2874" fill="#9C9FCE"/>
<path d="M99.739 95.4514C99.739 96.6514 98.9564 97.6234 97.9897 97.6234C97.0244 97.6234 96.2404 96.6514 96.2404 95.4514C96.2404 94.2514 97.0244 93.2781 97.9897 93.2781C98.9564 93.2781 99.739 94.2514 99.739 95.4514Z" fill="#812413"/>
<path d="M97.9777 93.2794C97.0177 93.2874 96.2404 94.2567 96.2404 95.4514C96.2404 96.4767 96.815 97.3314 97.5844 97.5594C98.543 97.5514 99.3204 96.5834 99.3204 95.3874C99.3204 94.362 98.747 93.5087 97.9777 93.2794Z" fill="#CE2409"/>
<path d="M98.4469 95.4514C98.4469 96.13 98.0043 96.6807 97.4576 96.6807C96.9109 96.6807 96.4683 96.13 96.4683 95.4514C96.4683 94.7727 96.9109 94.222 97.4576 94.222C98.0043 94.222 98.4469 94.7727 98.4469 95.4514Z" fill="#CE5638"/>
<path d="M97.111 103.578H99.9214V101.419H97.111V103.578Z" fill="#BCBFE3"/>
<path d="M94.4404 99.7034C94.399 99.7034 94.3497 99.6928 94.2937 99.6701C93.927 99.5248 93.7617 99.0754 93.9257 98.6648C94.0524 98.3421 94.347 98.1408 94.6443 98.1408C94.7243 98.1408 94.8057 98.1554 94.883 98.1861C95.2483 98.3314 95.0017 98.6328 94.8404 99.0434C94.7017 99.3901 94.6697 99.7034 94.4404 99.7034" fill="#BCBFE3"/>
<path d="M102.922 98.8221C102.66 98.8221 102.52 98.0461 101.847 97.5594C101.172 97.0728 99.9456 96.4288 100.468 96.2288C100.468 96.2288 102.962 97.1901 103.143 97.6234C103.323 98.0581 103.183 98.8221 102.922 98.8221Z" fill="#BCBFE3"/>
<path d="M98.1976 104.275C95.1709 104.275 92.7083 100.317 92.7083 95.4514C92.7083 90.5847 95.1709 86.6261 98.1976 86.6261C101.223 86.6261 103.686 90.5847 103.686 95.4514C103.686 100.317 101.223 104.275 98.1976 104.275ZM98.1976 86.1434C94.8989 86.1434 92.2256 90.3114 92.2256 95.4514C92.2256 100.591 94.8989 104.758 98.1976 104.758C101.495 104.758 104.168 100.591 104.168 95.4514C104.168 90.3114 101.495 86.1434 98.1976 86.1434Z" fill="#85AFAF"/>
<path d="M5.05593 66.3901C4.22833 67.2834 3.61221 68.0888 2.91541 69.1421C19.1997 84.8661 80.387 93.6554 116.784 79.9074C142.659 69.7274 164.08 57.4781 177.574 47.6247C178.151 45.8981 178.782 43.9954 179.434 42.0101C168.487 49.6168 142.8 64.2434 114.919 75.0181C80.2017 88.2647 19.1737 79.9567 5.05593 66.3901" fill="#972029"/>
<path d="M114.919 75.0181L114.842 75.0474C114.572 77.0394 114.243 79.0034 113.848 80.9461C114.843 80.6141 115.824 80.2701 116.784 79.9074C142.659 69.7274 164.08 57.4781 177.574 47.6248C178.151 45.8981 178.782 43.9954 179.434 42.0101C168.487 49.6168 142.8 64.2434 114.919 75.0181" fill="#781921"/>
<path d="M62.903 30.374C54.9774 27.7047 51.2711 24.7994 49.6408 22.3194C39.9002 29.2128 39.8362 47.6247 39.8362 47.6247C46.4268 58.0927 67.7496 62.5514 78.2176 61.1941C88.6843 59.8381 89.2656 41.8101 87.1336 36.9647C85.0016 32.1194 81.899 36.77 62.903 30.374Z" fill="#5B538A"/>
<path d="M73.4589 61.4261C67.8323 61.3341 60.8016 60.1341 54.4768 57.8114C60.8003 60.1328 67.8309 61.3328 73.4589 61.4261ZM75.8283 61.3954C75.8363 61.3954 75.8429 61.3954 75.8509 61.3941L75.8283 61.3954Z" fill="#A0A4F2"/>
<path d="M41.6935 35.1701C41.694 35.1674 41.6949 35.1661 41.6955 35.1635C41.6949 35.1648 41.694 35.1674 41.6935 35.1701ZM41.7039 35.1341C41.7049 35.1301 41.7059 35.1261 41.7064 35.1234C41.7059 35.1261 41.7049 35.1314 41.7039 35.1341ZM41.7143 35.0981C41.7159 35.0928 41.7168 35.0875 41.7184 35.0835C41.7168 35.0888 41.7159 35.0928 41.7143 35.0981ZM41.7273 35.0514C41.7277 35.0514 41.7277 35.0501 41.7283 35.0488C41.7277 35.0501 41.7277 35.0514 41.7273 35.0514ZM41.7387 35.0127C41.7403 35.0074 41.7419 35.0008 41.744 34.9954C41.7419 35.0021 41.7403 35.0061 41.7387 35.0127ZM41.7492 34.9767C41.7512 34.9701 41.7533 34.9621 41.7553 34.9555C41.7533 34.9621 41.7512 34.9701 41.7492 34.9767ZM41.7596 34.9421C41.7611 34.9354 41.7632 34.9288 41.7648 34.9221C41.7627 34.9288 41.7611 34.9354 41.7596 34.9421ZM41.7716 34.8994C41.7731 34.8954 41.7741 34.8915 41.7757 34.8861C41.7741 34.8915 41.7731 34.8954 41.7716 34.8994ZM41.7825 34.8635C41.7835 34.8581 41.7851 34.8528 41.7867 34.8488C41.7851 34.8541 41.7835 34.8581 41.7825 34.8635ZM41.7919 34.8314C41.7955 34.8194 41.7987 34.8074 41.8023 34.7954C41.7992 34.8074 41.7949 34.8194 41.7919 34.8314ZM41.8075 34.7781C41.8091 34.7714 41.8111 34.7648 41.8127 34.7594C41.8111 34.7648 41.8091 34.7714 41.8075 34.7781ZM41.8179 34.7421C41.82 34.7354 41.8216 34.7301 41.8236 34.7234C41.8216 34.7301 41.82 34.7354 41.8179 34.7421ZM41.8288 34.7061C41.8309 34.6994 41.8329 34.6915 41.8351 34.6835C41.8329 34.6915 41.8309 34.6981 41.8288 34.7061ZM41.8387 34.6728C41.8408 34.6661 41.8429 34.6581 41.8455 34.6501C41.8429 34.6581 41.8408 34.6648 41.8387 34.6728ZM41.8544 34.6208C41.8559 34.6154 41.8575 34.6101 41.8591 34.6047C41.8575 34.6101 41.8559 34.6154 41.8544 34.6208ZM41.8673 34.5767C41.8689 34.5727 41.87 34.5701 41.8711 34.5648C41.87 34.5688 41.8684 34.5741 41.8673 34.5767ZM41.8773 34.5448C41.8793 34.5381 41.8815 34.5315 41.8835 34.5248C41.8815 34.5315 41.8793 34.5381 41.8773 34.5448ZM41.8892 34.5047C41.8908 34.5007 41.8924 34.4954 41.894 34.4901C41.8924 34.4954 41.8908 34.4994 41.8892 34.5047ZM41.9023 34.4621C41.9028 34.4594 41.9039 34.4568 41.9049 34.4541C41.9039 34.4568 41.9033 34.4594 41.9023 34.4621ZM41.9277 34.3794C41.9288 34.3754 41.9293 34.3741 41.9304 34.3701C41.9293 34.3728 41.9283 34.3767 41.9277 34.3794ZM41.9403 34.3381C41.9403 34.3381 41.9413 34.3367 41.9413 34.3354C41.9408 34.3367 41.9408 34.3367 41.9403 34.3381Z" fill="#6C7AD3"/>
<path d="M74.1457 61.4314C73.9203 61.4314 73.6897 61.4301 73.459 61.4261C67.831 61.3327 60.8003 60.1327 54.4769 57.8114C48.2294 55.5154 42.6711 52.1247 39.8373 47.6247C39.8373 47.6247 39.8586 41.6074 41.6935 35.1701C41.6941 35.1674 41.695 35.1648 41.6955 35.1634C41.6982 35.1528 41.7013 35.1434 41.7039 35.1341C41.705 35.1314 41.7059 35.1261 41.7065 35.1234C41.7091 35.1154 41.7117 35.1061 41.7143 35.0981C41.7159 35.0927 41.7169 35.0887 41.7185 35.0834C41.7217 35.0727 41.7242 35.0621 41.7274 35.0514C41.7278 35.0514 41.7278 35.05 41.7283 35.0487C41.7321 35.0367 41.7351 35.0247 41.7387 35.0127C41.7403 35.006 41.7419 35.0021 41.7441 34.9954C41.7455 34.9887 41.7477 34.982 41.7493 34.9767C41.7513 34.97 41.7534 34.9621 41.7554 34.9554C41.757 34.9501 41.7581 34.9461 41.7597 34.9421C41.7611 34.9354 41.7627 34.9288 41.7649 34.9221C41.7674 34.9141 41.7695 34.9074 41.7717 34.8994C41.7731 34.8954 41.7742 34.8914 41.7758 34.8861C41.7778 34.8794 41.7799 34.8714 41.7826 34.8634C41.7835 34.8581 41.7851 34.854 41.7867 34.8487C41.7883 34.8434 41.7898 34.8367 41.7919 34.8314C41.795 34.8194 41.7993 34.8074 41.8023 34.7954C41.8045 34.7887 41.8054 34.7834 41.8075 34.7781C41.8091 34.7714 41.8111 34.7647 41.8127 34.7594C41.8149 34.7527 41.8163 34.7474 41.8179 34.7421C41.8201 34.7354 41.8217 34.7301 41.8237 34.7234C41.8253 34.7181 41.8269 34.7127 41.8289 34.7061C41.831 34.6981 41.833 34.6914 41.8351 34.6834C41.8367 34.6807 41.8378 34.6767 41.8387 34.6727C41.8409 34.6647 41.843 34.6581 41.8455 34.6501C41.8487 34.6407 41.8513 34.6314 41.8545 34.6207C41.8559 34.6154 41.8575 34.61 41.8591 34.6047C41.8617 34.5954 41.8649 34.586 41.8674 34.5767C41.8685 34.574 41.8701 34.5687 41.8711 34.5647C41.8731 34.5581 41.8753 34.5514 41.8774 34.5447C41.8794 34.5381 41.8815 34.5314 41.8835 34.5248C41.8851 34.5181 41.8873 34.5114 41.8893 34.5047C41.8909 34.4994 41.8925 34.4954 41.8941 34.4901C41.8966 34.4807 41.8993 34.4714 41.9023 34.4621C41.9034 34.4594 41.9039 34.4567 41.905 34.4541C41.9086 34.4407 41.9122 34.4287 41.9163 34.4154C41.9206 34.4034 41.9242 34.3914 41.9278 34.3794C41.9283 34.3767 41.9294 34.3727 41.9305 34.3701C41.9335 34.3594 41.9373 34.3487 41.9403 34.338C41.9409 34.3367 41.9409 34.3367 41.9414 34.3354C41.945 34.322 41.9493 34.3101 41.9534 34.2968C41.957 34.2834 41.9611 34.2701 41.9654 34.2581C44.7278 34.3621 47.7982 34.7154 50.0955 35.274C58.8177 37.4074 69.3843 51.0954 75.851 61.3941C75.843 61.3954 75.8363 61.3954 75.8283 61.3954L75.6763 61.4007C75.1803 61.4207 74.6697 61.4314 74.1457 61.4314" fill="#696099"/>
<path d="M87.1337 36.9647C85.0017 32.1194 81.899 36.7701 62.903 30.3741C54.9774 27.7047 51.2717 24.7994 49.6414 22.3194C48.6841 22.9994 48.2029 23.4861 48.2029 23.4861C49.8326 25.9648 53.6559 29.0261 61.583 31.6954C80.579 38.0914 83.6803 33.4394 85.8123 38.2861C87.451 42.0074 87.4803 53.4981 82.6683 59.2461C88.7977 54.1674 88.9097 40.9994 87.1337 36.9647" fill="#CBD0F2"/>
<path d="M111.267 46.4621C111.267 49.7287 108.619 52.3741 105.355 52.3741C102.09 52.3741 99.443 49.7287 99.443 46.4621C99.443 43.1981 102.09 40.5501 105.355 40.5501C108.619 40.5501 111.267 43.1981 111.267 46.4621" fill="#515497"/>
<path d="M105.355 40.8408C102.255 40.8408 99.7323 43.3621 99.7323 46.4621C99.7323 49.5621 102.255 52.0834 105.355 52.0834C108.454 52.0834 110.976 49.5621 110.976 46.4621C110.976 43.3621 108.454 40.8408 105.355 40.8408ZM105.355 52.6661C101.934 52.6661 99.151 49.8834 99.151 46.4621C99.151 43.0421 101.934 40.2594 105.355 40.2594C108.775 40.2594 111.558 43.0421 111.558 46.4621C111.558 49.8834 108.775 52.6661 105.355 52.6661Z" fill="#CBD0F2"/>
<path d="M129.024 47.1341C129.024 49.8034 126.862 51.9661 124.194 51.9661C121.524 51.9661 119.362 49.8034 119.362 47.1341C119.362 44.4661 121.524 42.3034 124.194 42.3034C126.862 42.3034 129.024 44.4661 129.024 47.1341Z" fill="#515497"/>
<path d="M124.194 42.5941C121.69 42.5941 119.652 44.6301 119.652 47.1341C119.652 49.6381 121.69 51.6741 124.194 51.6741C126.696 51.6741 128.734 49.6381 128.734 47.1341C128.734 44.6301 126.696 42.5941 124.194 42.5941ZM124.194 52.2567C121.37 52.2567 119.071 49.9581 119.071 47.1341C119.071 44.3101 121.37 42.0127 124.194 42.0127C127.018 42.0127 129.315 44.3101 129.315 47.1341C129.315 49.9581 127.018 52.2567 124.194 52.2567Z" fill="#CBD0F2"/>
<path d="M142.766 46.0541C142.766 48.0807 141.123 49.7234 139.096 49.7234C137.07 49.7234 135.427 48.0807 135.427 46.0541C135.427 44.0274 137.07 42.3847 139.096 42.3847C141.123 42.3847 142.766 44.0274 142.766 46.0541Z" fill="#515497"/>
<path d="M139.096 42.6754C137.234 42.6754 135.718 44.1901 135.718 46.0541C135.718 47.9167 137.234 49.4314 139.096 49.4314C140.959 49.4314 142.475 47.9167 142.475 46.0541C142.475 44.1901 140.959 42.6754 139.096 42.6754ZM139.096 50.0128C136.914 50.0128 135.136 48.2367 135.136 46.0541C135.136 43.8701 136.914 42.0941 139.096 42.0941C141.28 42.0941 143.056 43.8701 143.056 46.0541C143.056 48.2367 141.28 50.0128 139.096 50.0128Z" fill="#CBD0F2"/>
<path d="M152.848 44.1794C152.848 45.8114 151.524 47.1341 149.892 47.1341C148.259 47.1341 146.936 45.8114 146.936 44.1794C146.936 42.5461 148.259 41.2221 149.892 41.2221C151.524 41.2221 152.848 42.5461 152.848 44.1794Z" fill="#515497"/>
<path d="M149.892 41.5128C148.423 41.5128 147.227 42.7088 147.227 44.1794C147.227 45.6474 148.423 46.8434 149.892 46.8434C151.362 46.8434 152.558 45.6474 152.558 44.1794C152.558 42.7088 151.362 41.5128 149.892 41.5128ZM149.892 47.4247C148.102 47.4247 146.646 45.9688 146.646 44.1794C146.646 42.3888 148.102 40.9314 149.892 40.9314C151.682 40.9314 153.139 42.3888 153.139 44.1794C153.139 45.9688 151.682 47.4247 149.892 47.4247Z" fill="#CBD0F2"/>
<path d="M153.524 48.75C153.524 48.75 177.415 61.8007 188.222 60.0727C199.028 58.3447 179.803 41.7234 179.803 41.7234C179.803 41.7234 148.872 38.4274 153.524 48.75Z" fill="#929FE4"/>
<path d="M188.222 60.0727C192.91 59.3234 191.944 55.77 189.351 51.9874C190.246 53.7087 190.859 56.2754 187.543 57.4727C182.835 59.1727 160.019 46.0541 155.48 43.3981C153.366 44.5421 152.395 46.2434 153.524 48.75C153.524 48.75 177.415 61.8007 188.222 60.0727Z" fill="#4E5BA8"/>
<path d="M58.9296 23.8927C59.5003 24.258 70.8509 30.2287 86.1163 32.554C101.38 34.8807 120.571 39.178 120.571 35.026C120.571 30.874 52.6783 19.882 58.9296 23.8927" fill="#BBC0FF"/>
<path d="M103.223 62.9394C103.223 62.9394 86.1643 64.4901 84.419 70.1114C82.675 75.7328 85.583 83.0981 85.583 83.0981C85.583 83.0981 142.33 119.439 173.344 116.726C173.344 116.726 179.014 117.214 179.014 112.562C179.014 101.707 130.36 63.7141 130.36 63.7141C130.36 63.7141 113.943 60.9328 103.223 62.9394Z" fill="#697CE4"/>
<path d="M161.815 104.758C151.416 104.755 93.4524 75.0634 91.931 70.4994C90.3324 65.7007 103.707 65.2647 103.707 65.2647C103.707 65.2647 110.232 64.8127 116.566 64.8127C119.731 64.8127 122.85 64.9261 125.078 65.2647C131.766 66.2834 168.547 101.174 163.022 104.518C162.752 104.681 162.347 104.758 161.815 104.758ZM106.242 67.1287C102.434 67.1287 99.647 68.0621 101.239 70.4994C101.239 70.4994 109.196 78.2247 115.572 78.2247C116.92 78.2247 118.199 77.8794 119.315 77.0407C125.712 72.2434 118.152 68.8994 112.192 67.7367C110.228 67.3541 108.111 67.1287 106.242 67.1287" fill="#7A8BE4"/>
<path d="M115.572 78.2247C109.196 78.2247 101.239 70.4994 101.239 70.4994C99.647 68.0621 102.434 67.1287 106.242 67.1287C108.111 67.1287 110.228 67.3541 112.192 67.7367C118.152 68.8994 125.712 72.2434 119.315 77.0407C118.199 77.8794 116.92 78.2247 115.572 78.2247" fill="#95A1EF"/>
<path d="M134.523 100.563C127.203 97.1154 119.972 93.4728 112.72 89.8808C96.399 81.7994 88.1363 74.9274 84.579 69.7167C84.5203 69.8461 84.4617 69.9768 84.4203 70.1114C82.675 75.7328 85.583 83.0981 85.583 83.0981C85.583 83.0981 141.807 118.806 173.408 118.219C176.402 118.163 179.014 115.817 179.014 112.562C179.014 111.131 178.163 109.227 176.696 107.003C177.776 108.641 180.244 114.027 176.51 114.271C169.02 114.761 145.056 105.526 134.523 100.563" fill="#5564B8"/>
<path d="M173.408 118.219C176.402 118.163 179.014 115.817 179.014 112.562C179.014 111.173 178.204 109.331 176.814 107.189C177.94 109.01 180.115 114.037 176.51 114.271C169.8 114.71 149.872 107.345 138.222 102.238C140.378 105.779 142.655 109.215 145.063 112.537C155.23 116.049 165.158 118.371 173.408 118.219" fill="#4E5BA8"/>
<path d="M176.814 107.189L176.696 107.003L176.814 107.189Z" fill="#5564B8"/>
<path d="M35.293 51.6327C35.293 51.6327 13.6163 57.0421 19.9007 63.3261C26.1862 69.6114 63.983 67.1274 63.983 67.1274C63.983 67.1274 29.1758 57.7501 35.293 51.6327" fill="#BBC0FF"/>
<path d="M174.071 15.5315C174.071 15.5315 146.464 31.0021 148.484 33.0221C150.504 35.0408 150.811 34.7661 156.19 33.8061C161.568 32.8461 176.818 16.8301 174.071 15.5315" fill="#BBC0FF"/>
<path d="M97.111 78.4074C97.111 78.8687 96.7377 79.2421 96.2777 79.2421C95.8163 79.2421 95.4443 78.8687 95.4443 78.4074C95.4443 77.9474 95.8163 77.5741 96.2777 77.5741C96.7377 77.5741 97.111 77.9474 97.111 78.4074Z" fill="#515497"/>
<path d="M107.85 84.8661C107.85 85.2941 107.503 85.6434 107.074 85.6434C106.644 85.6434 106.295 85.2941 106.295 84.8661C106.295 84.4354 106.644 84.0887 107.074 84.0887C107.503 84.0887 107.85 84.4354 107.85 84.8661Z" fill="#515497"/>
<path d="M120.976 91.3461C120.976 91.7061 120.684 91.9981 120.323 91.9981C119.963 91.9981 119.672 91.7061 119.672 91.3461C119.672 90.9861 119.963 90.6941 120.323 90.6941C120.684 90.6941 120.976 90.9861 120.976 91.3461Z" fill="#515497"/>
</svg>
