<svg fill="none" height="86" viewBox="0 0 86 86" width="86" xmlns="http://www.w3.org/2000/svg"><path d="m56.959.759527c6.0053 2.144233 9.0893 8.168153 6.888 13.456173-2.2027 5.2868-13.2907 25.3247-19.296 23.1818-6.0054-2.1443-4.6534-25.6596-2.452-30.9477 2.2026-5.28674 8.856-7.83319 14.86-5.690273" fill="#6e9495"/><path d="m47.5322 3.30466s9.4627-.19121 11.1027 7.52064c1.64 7.7119-9.6413 17.6128-9.6413 17.6128s7.0066-11.5467 4.276-16.9626c-2.7294-5.41866-8.9654-7.5695-5.7374-8.17084z" fill="#85afaf"/><path d="m32.087 85.7906c5.9733 1.1365 11.6653-2.4674 12.7133-8.0523 1.0467-5.5835 2.8134-28.1005-3.16-29.2372-5.9746-1.1381-17.4253 19.5355-18.4733 25.1203-1.048 5.5834 2.9453 11.0309 8.92 12.1692z" fill="#85afaf"/><path d="m32.3496 80.8727c-3.54 0-6.4893-1.8971-6.4893-1.8971-2.276-2.1012 3.8853-.8587 8.9706-4.121 5.0854-3.2627 5.604-16.5409 5.604-16.5409s3.796 13.9864-1.6333 19.7388c-2.028 2.1465-4.344 2.8202-6.452 2.8202" fill="#457878"/><path d="m49.8309 42.57c.8408-5.5126-1.5354-10.237-5.3069-10.5538-.1374-.0057-.2736-.0105-.411-.0162-3.6303.0086-7.1334 4.1156-7.9439 9.4288-.8105 5.315 1.369 9.8963 4.9061 10.5022.1348.0172.2697.0344.4046.0525 3.7715.314 7.5103-3.8999 8.3511-9.4135" fill="#e04613"/><path d="m41 51.8358c1.4426.0941 2.6944-.4182 3.6453-1.0873.9639-.6805 1.6801-1.5349 2.2885-2.416 1.1857-1.803 1.9511-3.9919 2.2028-5.7265.3424-1.9816.323-4.0061-.2076-5.9536-.5747-1.9969-1.7215-4.0897-4.3796-4.6524 2.9642.0542 4.8233 2.3381 5.6639 4.4129.4346 1.0265.6357 2.092.7524 3.1555.0831 1.0664.0078 2.1328-.1466 3.1907-.3943 2.1033-1.1909 4.2009-2.7321 6.041-.7615.9153-1.7072 1.7745-2.9149 2.417-1.4102.595-2.6024 1.036-4.1721.6187" fill="#6d2616"/><path d="m46.9033 42.3416c.4807-3.3078-.8771-6.1426-3.0326-6.3326l-.2341-.009c-2.075.004-4.077 2.4686-4.54 5.6574-.4631 3.1888.7827 5.9385 2.8035 6.3026l.2303.0301c2.1568.189 4.2934-2.3397 4.7729-5.6485z" fill="#8c050c"/></svg>