<svg width="184" height="126" viewBox="0 0 184 126" fill="none" xmlns="http://www.w3.org/2000/svg">
<path d="M82.3056 113.054L79.3656 112.474L83.7709 90.9458L86.7109 91.5276L82.3056 113.054Z" fill="#4E511A"/>
<path d="M43.3776 37.8941C43.3776 37.8941 68.7616 2.89676 97.5962 0.131428C126.432 -2.63124 100.986 39.0754 100.986 39.0754L43.3776 37.8941Z" fill="#F3B417"/>
<path d="M13.0229 32.3141C21.3016 32.0034 28.4376 44.7167 28.9643 60.7141C29.4896 76.7114 23.2056 89.9338 14.927 90.2515C41.5843 100.324 59.4536 103.638 107.672 93.7099C123.736 90.4037 139.783 85.8034 154.606 78.6754C162.879 74.6994 180.396 66.3821 180.023 54.9914C179.831 49.1874 173.007 47.2248 168.36 46.1394C163.735 45.0581 158.62 45.5461 153.522 46.0341C146.887 46.6687 140.282 47.3034 134.822 44.4834C120.584 37.1247 112.354 33.2901 103.367 30.5821C86.491 25.4967 68.6883 25.1221 51.6443 30.5701C36.7603 35.3261 28.2269 34.2501 21.8416 33.1728C18.5176 32.6114 15.7749 32.0514 13.0229 32.3141Z" fill="#F3B417"/>
<path d="M136.939 45.3861C136.218 45.1341 135.51 44.8381 134.822 44.4834C120.584 37.1248 112.354 33.2901 103.367 30.5821C86.491 25.4968 68.6883 25.1221 51.6443 30.5701C36.7603 35.3261 28.2269 34.2501 21.8416 33.1728C18.5176 32.6114 15.7749 32.0514 13.0229 32.3141C18.6043 32.1048 23.6643 37.8221 26.5323 46.4688C39.8656 50.7314 58.9523 53.4034 80.1523 53.4034C103.095 53.4034 123.559 50.2741 136.939 45.3861Z" fill="#FEDE00"/>
<path d="M135.004 45.9528C136.939 44.2754 156.034 32.6568 163.594 20.4621C171.747 7.31144 181.596 14.5648 183.366 18.5194C185.134 22.4741 179.402 53.0954 179.402 53.0954C179.402 53.0954 123.072 56.3048 135.004 45.9528Z" fill="#F3B417"/>
<path d="M180.023 54.9914C179.996 54.2248 179.732 53.2181 179.496 52.5794C151.572 80.7567 64.1189 78.9047 28.3829 70.7047C26.6455 81.8754 21.3949 90.0037 14.9269 90.2515C41.5842 100.324 59.4536 103.638 107.672 93.7099C123.736 90.4037 139.783 85.8034 154.606 78.6754C162.879 74.6994 180.396 66.3821 180.023 54.9914Z" fill="#80A50E"/>
<path d="M154.606 72.7341C139.783 79.8608 123.736 84.4608 107.672 87.7672C63.6349 96.8338 44.9109 94.8552 21.6895 86.7714C19.6989 88.9037 16.0416 89.9433 13.5656 90.0396C40.2242 100.111 59.4536 103.638 107.672 93.71C123.736 90.4037 139.783 85.8034 154.606 78.6754C162.879 74.6994 180.396 66.3821 180.023 54.9914C179.996 54.2248 179.84 53.2194 179.496 52.5794C177.272 60.9021 161.867 69.2434 154.606 72.7341Z" fill="#747647"/>
<path d="M28.9643 60.7141C28.4363 44.7168 21.5656 31.9941 13.6149 32.2928C13.3283 32.3208 13.0429 32.3487 12.7563 32.3781C5.2336 33.5554 -0.341057 46.3874 0.168276 61.8088C0.676276 77.2288 7.0816 89.6062 14.6643 90.21C14.9509 90.2166 15.2376 90.2234 15.5243 90.2302C23.4749 89.9245 29.4909 76.7114 28.9643 60.7141Z" fill="#FEDE00"/>
<path d="M26.4203 60.8114C25.9816 47.5288 20.2643 36.9661 13.6483 37.2128C13.4096 37.2368 13.1723 37.2594 12.9336 37.2834C6.6723 38.2634 2.03363 48.9181 2.45629 61.7208C2.87763 74.5248 8.20829 84.8021 14.5176 85.3021C14.7563 85.3074 14.995 85.3141 15.2336 85.3194C21.8496 85.0634 26.8576 74.0928 26.4203 60.8114Z" fill="#752912"/>
<path d="M12.635 84.8514C18.1696 82.6208 22.0976 72.6354 21.707 60.8114C21.3283 49.3061 16.9856 39.8448 11.5309 37.6794C5.99495 39.9088 2.06694 49.8941 2.45627 61.7194C2.83494 73.2274 7.17895 82.6888 12.635 84.8514Z" fill="#C05211"/>
<path d="M80.4789 14.3421C60.8055 13.8141 44.5109 24.0914 44.0829 37.2954C44.2869 31.0048 60.4002 26.3341 80.0709 26.8634C99.7442 27.3914 115.526 32.9181 115.32 39.2075C115.751 26.0021 100.15 14.8715 80.4789 14.3421Z" fill="#328593"/>
<path d="M80.0709 26.8634C60.4003 26.3341 44.2869 31.0048 44.0829 37.2954C43.8776 43.5847 59.6603 49.1101 79.3323 49.6394C99.0043 50.1661 115.116 45.4954 115.32 39.2074C115.526 32.9181 99.7443 27.3914 80.0709 26.8634Z" fill="#463A46"/>
<path d="M44.0842 37.2394C44.0856 37.2154 44.0869 37.1901 44.0896 37.1661C44.0869 37.1901 44.0856 37.2154 44.0842 37.2394ZM89.8576 27.5634C86.7536 27.1954 83.4709 26.9541 80.0709 26.8634C79.0549 26.8354 78.0442 26.8221 77.0482 26.8221C78.0456 26.8221 79.0536 26.8354 80.0709 26.8634C83.4709 26.9541 86.7536 27.1954 89.8576 27.5634ZM77.0389 26.8221C77.0429 26.8221 77.0442 26.8221 77.0482 26.8221C77.0442 26.8221 77.0429 26.8221 77.0389 26.8221Z" fill="#FEE95C"/>
<path d="M115.32 39.2075C115.322 39.1635 115.323 39.1208 115.323 39.0781C115.312 33.9274 104.596 29.3101 89.8576 27.5634C86.7536 27.1954 83.4709 26.9541 80.0709 26.8634C79.0536 26.8354 78.0455 26.8221 77.0482 26.8221C77.0442 26.8221 77.0429 26.8221 77.0389 26.8221C76.2082 26.8221 75.3842 26.8315 74.5709 26.8501C80.3669 23.8981 85.1669 20.9021 83.3536 17.9861C82.1162 15.9968 79.3909 15.3235 76.3496 15.3235C73.3429 15.3235 70.0282 15.9821 67.5389 16.6741C66.5762 16.9421 65.7362 17.2155 65.0869 17.4581C59.2416 19.6381 54.1416 23.8741 51.0642 29.3155C50.7309 29.9035 50.4256 30.5328 50.1549 31.1875C46.4562 32.8541 44.2416 34.9021 44.0896 37.1661C44.0869 37.1901 44.0856 37.2155 44.0842 37.2395C44.0842 37.2581 44.0829 37.2768 44.0829 37.2954C44.5002 24.4168 60.0109 14.3221 79.0282 14.3221C79.5096 14.3221 79.9935 14.3288 80.4789 14.3421C99.8815 14.8635 115.323 25.6995 115.33 38.6661C115.33 38.8461 115.327 39.0261 115.32 39.2075Z" fill="#61ACBA"/>
<path d="M82.3495 49.6794C81.3549 49.6794 80.3482 49.6661 79.3322 49.6395C59.7949 49.1141 44.0935 43.6595 44.0802 37.4248C44.0802 37.3808 44.0815 37.3381 44.0829 37.2954C44.0829 37.2768 44.0842 37.2581 44.0842 37.2395C44.0855 37.2155 44.0869 37.1901 44.0895 37.1661C44.2415 34.9021 46.4562 32.8541 50.1549 31.1875C48.1869 35.9488 48.1135 42.0154 53.3949 43.2688C54.0535 43.4248 54.6615 43.4981 55.2229 43.4981C61.9735 43.4981 62.2629 32.9461 69.3109 29.4568C71.0549 28.5941 72.8562 27.7234 74.5709 26.8501C75.3842 26.8314 76.2082 26.8221 77.0389 26.8221C77.0429 26.8221 77.0442 26.8221 77.0482 26.8221C78.0442 26.8221 79.0549 26.8354 80.0709 26.8634C83.4709 26.9541 86.7535 27.1954 89.8575 27.5634C104.596 29.3101 115.312 33.9274 115.323 39.0781C115.323 39.1208 115.322 39.1635 115.32 39.2075C115.127 45.1715 100.627 49.6794 82.3495 49.6794Z" fill="#717989"/>
<path d="M55.7349 74.6194C55.7349 74.6194 107.89 117.645 140.151 121.157C150.192 122.25 157.788 112.269 154.063 102.938C150.558 94.1594 142.871 82.2061 126.224 68.9608C126.224 68.9608 48.3269 58.0554 55.7349 74.6194Z" fill="#F3B417"/>
<path d="M126.224 68.9608C126.224 68.9608 83.1616 62.9341 64.1189 66.6528C75.2949 75.4954 117.936 107.94 145.771 110.97C149.271 111.352 152.471 110.383 155 108.573C155.098 106.731 154.816 104.823 154.063 102.938C150.558 94.1594 142.871 82.2061 126.224 68.9608Z" fill="#FEDE00"/>
<path d="M90.9376 112.313C91.5376 119.129 86.8922 125.126 80.5642 125.711C74.2362 126.295 68.6215 121.243 68.0215 114.429C67.4229 107.611 72.0682 101.612 78.3962 101.029C84.7242 100.443 90.3389 105.495 90.9376 112.313Z" fill="#273141"/>
<path d="M88.0736 112.095C88.4523 116.401 85.5176 120.191 81.5203 120.559C77.5229 120.93 73.9763 117.738 73.5976 113.433C73.2189 109.126 76.1523 105.337 80.1509 104.967C84.1483 104.599 87.6963 107.79 88.0736 112.095Z" fill="#3D3A84"/>
<path d="M50.1549 31.1874C50.4256 30.5328 50.7309 29.9034 51.0642 29.3154C54.1416 23.8741 59.2416 19.6381 65.0869 17.4581C65.7362 17.2154 66.5763 16.9421 67.5389 16.6741C70.0283 15.9821 73.3429 15.3234 76.3496 15.3234C79.3909 15.3234 82.1162 15.9968 83.3536 17.9861C85.1669 20.9021 80.3669 23.8981 74.5709 26.8501C64.4296 27.0794 55.6549 28.7101 50.1549 31.1874Z" fill="#6CB5C6"/>
<path d="M55.223 43.4981C54.6616 43.4981 54.0536 43.4248 53.395 43.2688C48.1136 42.0154 48.187 35.9488 50.155 31.1874C55.655 28.7101 64.4296 27.0794 74.571 26.8501C72.8563 27.7234 71.0549 28.5941 69.3109 29.4568C62.2629 32.9461 61.9736 43.4981 55.223 43.4981Z" fill="#798B9D"/>
<path d="M110.071 84.8514C97.9403 84.8514 88.1069 81.8568 88.1069 78.1621C88.1069 74.4674 97.9403 71.4728 110.071 71.4728C122.202 71.4728 132.035 74.4674 132.035 78.1621C132.035 81.8568 122.202 84.8514 110.071 84.8514Z" fill="#FEEA00"/>
<path d="M132.343 97.0594C126.647 97.0594 122.03 95.1089 122.03 92.7048C122.03 90.3005 126.647 88.35 132.343 88.35C138.042 88.35 142.658 90.3005 142.658 92.7048C142.658 95.1089 138.042 97.0594 132.343 97.0594Z" fill="#FEEA00"/>
</svg>
