<svg fill="none" height="128" viewBox="0 0 128 128" width="128" xmlns="http://www.w3.org/2000/svg"><g fill="#ffc0cb"><path d="m0 0h32v32h-32z"/><path d="m0 64h32v32h-32z"/><path d="m96 32h32v32h-32z"/><path d="m96 96h32v32h-32z"/><path d="m32 32h32v32h-32z"/><path d="m32 96h32v32h-32z"/><path d="m64 0h32v32h-32z"/><path d="m64 64h32v32h-32z"/></g><path d="m32 0h32v32h-32z" fill="#000"/><path d="m32 64h32v32h-32z" fill="#000"/><path d="m64 32h32v32h-32z" fill="#000"/><path d="m64 96h32v32h-32z" fill="#000"/><path d="m0 32h32v32h-32z" fill="#000"/><path d="m0 96h32v32h-32z" fill="#000"/><path d="m96 0h32v32h-32z" fill="#000"/><path d="m96 64h32v32h-32z" fill="#000"/></svg>