<svg fill="none" height="121" viewBox="0 0 214 121" width="214" xmlns="http://www.w3.org/2000/svg"><path d="m165.843 92.7956-15 24.3904-13.509 3.746-1.493-15.497 22.2-12.6394z" fill="#9cc9b5"/><path d="m46.7687 26.3756 12.6709-7.5472s8.6282-9.48324-12.5093-11.2819c-21.1389-1.79985-39.19011 6.4537-35.4628 9.1427 3.7274 2.6902 11.842 9.5071 35.3012 9.6864z" fill="#672a40"/><path d="m213.009 52.4556c-.24 28.0579-42.13 50.4844-93.565 50.0914-51.433-.395-92.9359-23.4593-92.6961-51.5172.1022-11.8699 7.6565-22.7324 20.2354-31.2847 17.1528-11.66435 43.6517-19.034651 73.3287-18.807577 51.435.394397 92.936 23.459077 92.697 51.518077z" fill="#99d4d3"/><path d="m210.209 51.999c-.24 28.0579-39.33 50.941-90.765 50.548-51.433-.395-92.936-23.4594-92.6962-51.5172.1022-11.87 7.6565-22.7324 20.2354-31.2847 17.1528-11.66438 43.6517-19.034681 73.3288-18.807608 51.435.394388 90.135 23.002508 89.897 51.061508z" fill="#99d4d3"/><path d="m213.009 52.4556c-.191 22.2017-42.039 39.8823-93.473 39.488-51.4341-.3932-92.9774-18.7121-92.7881-40.9138.0807-9.3937 7.6162-17.9758 20.1798-24.7235 17.1327-9.2036 43.6177-14.9928 73.2933-14.7657 51.435.3944 92.977 18.712 92.788 40.915z" fill="#ce2409"/><path d="m213.009 52.4556c-.118 13.6997-41.907 24.4856-93.343 24.0924-51.433-.3944-93.0343-11.8185-92.9182-25.5182.0505-5.7963 7.5569-11.0704 20.0966-15.1971 17.1036-5.6279 43.571-9.1236 73.2456-8.8953 51.435.3932 93.035 11.8185 92.919 25.5182z" fill="#99d4d3"/><path d="m213.009 52.4556c-.042 5.0327-41.774 8.7937-93.208 8.3993-51.4353-.3932-93.0959-4.7925-93.053-9.8251.0177-2.1297 7.4976-4.0311 20.0146-5.4868 17.072-1.9851 43.518-3.1408 73.1944-2.9137 51.433.3932 93.095 4.7924 93.052 9.8263z" fill="#bf2723"/><path d="m213.009 52.4556c.141-16.568-14.277-31.3911-36.693-40.8373-5.613 10.2995-14.38 31.8129-8.551 58.3565 2.046 9.322 5.115 16.6624 8.681 22.4038 22.104-9.1224 36.423-23.5594 36.563-39.923z" fill="#9b1648"/><path d="m177.353 70.0489c-5.222-23.7829 1.272-43.5215 6.715-54.7795-2.461-1.2908-5.048-2.511-7.753-3.6511-5.612 10.2995-14.378 31.8129-8.55 58.3565 2.046 9.322 5.115 16.6624 8.681 22.4038 2.635-1.0864 5.154-2.2516 7.557-3.485-2.695-5.1319-5.003-11.3465-6.65-18.8447z" fill="#5e2d48"/><path d="m206.863 70.3525c3.91-5.5513 6.093-11.5795 6.146-17.8969.049-5.6912-1.646-11.1696-4.767-16.3027-1.777 5.298-2.858 11.8879-2.92 19.0347-.047 5.4856.513 10.6509 1.541 15.1649z" fill="#5e2d48"/><path d="m207.948 68.7558c.005-.0059.007-.0107.011-.0167 3.047-4.8115 4.798-9.9614 5.025-15.3262v.0023.0012c0 .0132-.002.0263-.002.0395v.0048c-.236 5.3541-1.988 10.4919-5.034 15.2951z" fill="#d6eeed"/><path d="m207.875 68.8646c.024-.0371.049-.0717.073-.1088 3.046-4.8031 4.798-9.941 5.034-15.2951-.238 5.3948-2.018 10.5696-5.107 15.4039zm5.107-15.4087c0-.0131.002-.0263.002-.0394 0 .0131-.002.0263-.002.0394z" fill="#81c6c5"/><path d="m120.095 101.666c.949 0 1.895-.007 2.842-.023 1.119-.068 2.237-.182 3.351-.346.03-.005.064-.01.095-.015 18.402-2.7773 19.043-7.9975 19.043-7.9975l4.648.0358s3.28 2.9663 6.616 4.4459c6.426-1.4485 13.045-3.4157 19.406-5.9577-1.214-2.0102-2.368-4.2104-3.439-6.6174-14.663 4.2726-32.36 6.7584-51.436 6.7596-.563 0-1.119-.0024-1.685-.0072-51.4342-.3932-92.9775-18.712-92.7882-40.9137v.2462c.0013 12.1699 7.8559 23.3897 20.9571 32.2109-.0088-.0072-.0214-.0156-.0315-.0227 10.7921 6.6914 23.2675 11.3978 36.4242 14.3474l-2.4719-5.016 6.5727.0515c.1149.0645 14.0876 7.9509 29.4416 8.8019.819.012 1.636.017 2.455.017z" fill="#81c6c5"/><path d="m121.221 91.9507c19.076-.0012 36.774-2.487 51.436-6.7596-1.352-3.0344-2.572-6.3963-3.619-10.1167-13.376 4.1112-28.831 6.4501-45.3 6.4501-.444 0-.886-.0024-1.331-.0048-19.346-.1482-37.2873-3.5053-52.1297-9.1271-26.2176-4.5881-43.6038-12.4986-43.5294-21.3628-.1893 22.2017 41.354 40.5206 92.7881 40.9138.566.0047 1.122.0071 1.685.0071z" fill="#ad2208"/><path d="m70.2772 72.3926c-11.1542-4.226-20.5597-9.7331-27.4957-16.1198-10.1335-1.5369-16.0488-3.3452-16.0336-5.243-.0745 8.8642 17.3118 16.7747 43.5293 21.3628z" fill="#81c6c5"/><path d="m212.985 53.4105c0-.0132.001-.0311.001-.0442v.0035c-.001.0132-.001.024-.001.0371z" fill="#d6eeed"/><path d="m212.985 53.4069c0-.0132 0-.0239.001-.0371-.001.0132-.001.0251-.001.0371z" fill="#81c6c5"/><path d="m212.986 53.3627c0-.0073.001-.0122.001-.0194v.0012c0 .0048-.001.0109-.001.0157z" fill="#d6eeed"/><path d="m212.986 53.3603c0-.0049.001-.0109.001-.0158 0 .0024 0 .0049-.001.0073z" fill="#81c6c5"/><path d="m26.7479 51.0298c.0101-1.0888.082-2.1691.2145-3.2412-.1325 1.0721-.2044 2.1524-.2145 3.2412zm.2145-3.2435c.0025-.0168.005-.0335.0076-.0514-.0026.0179-.0051.0346-.0076.0514z" fill="#d6eeed"/><path d="m26.7479 51.0298c.0366-4.1949 1.5583-8.2272 4.352-12.0086-.2196-.6896-.4152-1.3851-.583-2.0843-1.8662 3.4563-3.0775 7.0692-3.5469 10.798-.0025.0179-.005.0346-.0076.0514v.0023c-.1325 1.0721-.2044 2.1524-.2145 3.2412z" fill="#81c6c5"/><path d="m26.7477 51.0298c.0265-2.995 2.0416-5.8501 5.7147-8.4794-.5287-1.1616-.9829-2.3376-1.3627-3.5292-2.7936 3.7814-4.3154 7.8137-4.352 12.0086z" fill="#ad2208"/><path d="m26.7479 51.0298c.0113-1.3445 2.9967-2.5982 8.3467-3.7061-1.0157-1.5596-1.8939-3.1503-2.6321-4.7733-3.6731 2.6293-5.6881 5.4844-5.7146 8.4794z" fill="#81c6c5"/><path d="m42.7815 56.2728c-3.0649-2.8229-5.6478-5.8167-7.6868-8.9491-5.35 1.1079-8.3354 2.3615-8.3468 3.7061-.0151 1.8978 5.9001 3.706 16.0336 5.243z" fill="#a12421"/><path d="m183.745 88.3965c9.223-4.5857 17.441-10.5518 23.104-18.1061-1.019-4.4985-1.574-9.6423-1.527-15.1028.001-.1482.002-.2976.005-.447-6.637 6.8564-16.093 12.7639-27.521 17.2719 1.549 6.3939 3.591 11.8102 5.939 16.384zm23.957-19.2845c.058-.0813.116-.1662.172-.2474 3.089-4.8343 4.87-10.0092 5.108-15.4039 0-.0012 0-.0036 0-.0048 0-.0132.001-.0263.001-.0395-.234 5.5024-2.084 10.7765-5.281 15.6956zm5.281-15.6968c0-.0012 0-.0012 0-.0024.002-.0011 0-.0011.002-.0023 0-.0012 0-.0024 0-.0036 0-.012 0-.0239.001-.0371 0-.0012 0-.0024 0-.0036 0-.0023 0-.0011 0-.0035 0-.0012 0-.0012 0-.0024 0-.0024 0-.006 0-.0084 0 .0203-.001.0418-.003.0633z" fill="#821443"/><path d="m176.096 91.8085c2.603-1.0386 5.162-2.1751 7.649-3.412-2.348-4.5738-4.39-9.9901-5.939-16.384-2.808 1.1079-5.735 2.1309-8.768 3.0619 1.047 3.7204 2.267 7.0823 3.619 10.1167 1.071 2.407 2.225 4.6072 3.439 6.6174z" fill="#4f2a43"/><path d="m212.987 53.3364c.001-.018.001-.0383.003-.0562v.0024c-.002.0119-.002.0203-.002.0323 0 .0012 0 .0036-.001.0047v.0144z" fill="#d6eeed"/><path d="m212.987 53.334c0-.0036 0-.0107 0-.0143v.0095zm.001-.0191c0-.0119 0-.0203.002-.0323 0 .0012-.002.0036-.002.006z" fill="#81c6c5"/><path d="m212.987 53.3292c0-.0036 0-.006 0-.0095.002-.0012.002-.0036.002-.0048 0-.0084 0-.018 0-.0263 0 .0131 0 .0274-.002.0406z" fill="#821443"/><path d="m212.991 53.2192c.001-.0013.001-.004.001-.0054v.0014c0 .0027 0 .0027-.001.004z" fill="#d6eeed"/><path d="m212.991 53.2372c0-.0037 0-.0109 0-.0146 0-.0012 0-.0012 0-.0024v-.0012c.001-.0012.001-.0012.001-.0036-.001.0072-.001.0145-.001.0218z" fill="#821443"/><path d="m213.007 52.4998c.002-.0155.002-.0287.002-.0442 0 .0155 0 .0287-.002.0442zm.002-.086c.001-.2008.001-.4004-.003-.6012.001.0801.003.1602.003.2402v.0072.049c0 .0084.001.0155.001.0239v.043.0263.0335.0406.0275.0024c0 .0012-.001.0024-.001.0036v.0203.0215.0108.0167.0215.0084zm-.003-.6167c0-.0024 0-.0048 0-.0072z" fill="#d6eeed"/><path d="m213.007 52.4998c.002-.0155.002-.0287.002-.0442 0 .0144 0 .0287-.002.0442zm.002-.0442c0-.0143 0-.0275 0-.0418 0-.0012 0-.0036 0-.0048zm0-.0765c0-.0048 0-.0119 0-.0167v.0071zm0-.0275c0-.0071 0-.0143 0-.0215v.0155zm.001-.0478c0-.0083 0-.0191 0-.0275zm0-.0681c0-.0108 0-.0227 0-.0335v.006.0131zm0-.0598c0-.0155 0-.0275 0-.043v.0215.0144zm-.001-.0669c0-.0167 0-.0311 0-.049v.0048.0203zm0-.0562c0-.08-.002-.1601-.003-.2402 0-.0048 0-.0095 0-.0155 0-.0036 0-.0036 0-.0072s0-.0072 0-.0119c.001.0681.001.1374.003.2043v.0168.0394zm-.003-.2856c0-.0107 0-.0215-.002-.0322.002.0107.002.0215.002.0322z" fill="#81c6c5"/><path d="m213.007 52.5165c0-.006 0-.0119 0-.0167.002-.0155.002-.0299.002-.0442 0 .0203 0 .0406-.002.0609zm.002-.0609c0-.0155 0-.0323 0-.0466 0-.0036 0-.006 0-.0084zm0-.0861c0-.0036 0-.0047 0-.0071 0-.0036 0-.0072 0-.0108 0-.0024 0-.0048 0-.006zm0-.0597c0-.0012.001-.0024.001-.0036 0 .0012 0 .0024-.001.0036zm.001-.0885c0-.0036 0-.0095 0-.0131zm0-.0526c0-.0047 0-.0095 0-.0143zm-.001-.0836c0-.0072 0-.0131 0-.0203zm0-.0466c0-.0132 0-.0263 0-.0395zm0-.0562c-.001-.0669-.001-.1362-.003-.2044 0-.0036 0-.0071 0-.0107 0-.0108 0-.0215-.001-.0323-.003-.1589-.006-.3167-.011-.4756.007.2414.012.4828.015.723zm-.015-.7254c-.002-.0203-.003-.0419-.003-.0622 0 .0203.001.0419.003.0622zm-.003-.0741c-.001-.0156-.001-.0311-.002-.0466.001.0155.001.031.002.0466zm-.004-.0968c-.001-.0024-.001-.0036-.001-.006 0 .0024 0 .0036.001.006zm-.368-3.5245c-.115-.6848-.254-1.366-.418-2.0436-.001.0024-.001.0024-.001.0036.164.6764.304 1.3564.419 2.04z" fill="#821443"/><path d="m206.849 70.2903c.291-.3896.575-.7804.853-1.1784 3.197-4.9191 5.047-10.1932 5.282-15.6955 0-.0012 0 0 0 0v-.0012c.001-.0215.002-.043.002-.0633.001-.0024.001-.0048.001-.0072 0 0 0 0 0-.0012s0-.0048 0-.0072c0-.0012 0-.0012 0-.0023 0-.0012 0-.0036 0-.0048.002-.0132.002-.0275.002-.0406 0-.0024.001-.0048.001-.006s0-.0012 0-.0024c0-.0108 0-.0191.001-.0287 0-.0012 0-.0024 0-.0036 0-.0036 0-.0072 0-.0108 0-.0071 0-.0143.001-.0215v-.0012c0-.0191.002-.0358.002-.0549 0-.0012 0-.0036 0-.006s0-.0048 0-.0084v-.0012c.006-.1864.011-.3717.013-.5581 0-.0024 0-.0048 0-.0072 0-.0119 0-.0239 0-.0358 0-.0012 0-.0024 0-.0048 0-.0072 0-.0155 0-.0215.002-.0203.002-.0406.002-.0609 0-.0192 0-.0371 0-.055 0-.0072 0-.0144 0-.0215 0-.0036 0-.0072 0-.0096 0-.0084 0-.0155 0-.0239 0-.0048 0-.0108 0-.0155 0-.006 0-.0132 0-.0204.001-.0012.001-.0023.001-.0035s0-.0012 0-.0024c0-.0096 0-.018 0-.0275 0-.0132 0-.0275 0-.0407 0-.0047 0-.0095 0-.0143s0-.0084 0-.0131c0-.0024 0-.0036 0-.006 0-.0084 0-.0179 0-.0263 0-.0024 0-.0048 0-.0072 0-.0048 0-.0095 0-.0143 0-.0072 0-.0144 0-.0216 0-.0083-.001-.0155-.001-.0238 0-.0084 0-.0156 0-.0239 0-.0072 0-.0132 0-.0204 0-.0011 0-.0023 0-.0047s0-.0048 0-.0072c0-.0048 0-.0096 0-.0144 0-.0131 0-.0262 0-.0394 0-.006 0-.0108 0-.0167-.003-.2403-.008-.4816-.015-.7231 0 0 0-.0012 0-.0024-.002-.0203-.003-.0418-.003-.0621 0-.0036 0-.0084 0-.012-.001-.0155-.001-.031-.002-.0466 0-.0167-.002-.0334-.002-.0502-.001-.0024-.001-.0035-.001-.0059-.048-1.1832-.172-2.3556-.367-3.5185-.115-.6836-.255-1.3636-.419-2.04-1.74 3.2208-4.053 6.3066-6.873 9.2191-.003.1494-.004.2988-.005.447-.047 5.4605.508 10.6043 1.527 15.1027z" fill="#4f2a43"/><path d="m47.6734 83.4642c49.5077 34.0318 138.4406 21.7078 160.2896-14.7286-11.331 16.5787-34.777 25.8683-55.262 29.8696-34.024 6.5728-75.7364 3.0198-105.0276-15.141z" fill="#1c3d3b"/><path d="m.300621 48.1137c-.074448 8.606 13.097379 18.3379 37.516879 25.2409 22.5697-17.3352 13.7549-37.2495 2.6334-48.5625-24.9431 6.5648-40.077098 14.6342-40.150279 23.3216z" fill="#691e67"/><path d="m2.77517 54.8207c4.86674 6.658 16.82223 13.3829 35.04253 18.5339 20.8196-15.9919 14.9333-34.1781 5.1657-45.7815 2.6586 11.956-.1652 29.3151-40.20823 27.2476z" fill="#552068"/><path d="m40.4509 24.7921c-1.5078.3979-2.9791.8007-4.4163 1.2082 10.2786 11.2174 17.5831 29.7024-2.3368 46.1281 1.3375.4171 2.7078.827 4.1197 1.2262 22.5697-17.3352 13.7549-37.2495 2.6334-48.5625z" fill="#412b56"/><path d="m51.9901 73.7347 5.6692 3.871c1.3451.9179 2.2032 2.2863 2.4492 3.8399.4442 2.793-1.1912 6.5756-13.6602 6.8875-19.9477.4984-36.3686-8.2619-32.7031-10.5768 3.3059-2.0855 10.165-7.1182 27.6206-7.246 3.8119-.0275 7.5329 1.1138 10.6243 3.2244z" fill="#9b1648"/><path d="m57.6744 77.6152-.2436-.1661c-15.4267 6.5684-33.276 4.0216-44.1703 1.3182.5829 3.1659 15.4897 10.008 33.1877 9.5658 12.9674-.3251 14.3352-4.4028 13.7056-7.2174-.318-1.4198-1.2378-2.6519-2.4794-3.5005z" fill="#672a40"/><path d="m56.4278 41.58s-33.7593-2.4919-37.7554 5.2943c-3.6895 7.1875 28.1607 10.6127 33.1297 10.5721 0 0 5.2679.4613 9.7145-1.1246 4.3834-1.5632 9.0786-13.1439-5.0888-14.7418z" fill="#cc1d60"/><path d="m150.074 93.3204s5.821 5.2657 9.845 5.2657l-11.881 4.9729h-4.586z" fill="#9cc9b5"/><path d="m81.6257 92.7956 13.7094 27.8154 41.9989.321 12.74-27.6117-4.648-.0358s-.641 5.2202-19.043 7.9975c-18.401 2.775-38.1846-8.4349-38.1846-8.4349z" fill="#84ab99"/><path d="m88.1984 92.847s19.7836 11.21 38.1846 8.435c18.402-2.7773 19.043-7.9976 19.043-7.9976l4.648.0359-1.368 2.9651c-8.242 3.4778-32.336 14.0136-47.187 24.3736l-6.1839-.048-13.7094-27.8154z" fill="#709182"/><path d="m131.282 107.799c0 2.386 2.041 4.318 4.559 4.318 2.52 0 4.56-1.932 4.56-4.318 0-2.384-2.04-4.318-4.56-4.318-2.518 0-4.559 1.934-4.559 4.318z" fill="#1c3d3b"/><path d="m132.785 107.799c0 1.6 1.369 2.897 3.056 2.897 1.69 0 3.059-1.297 3.059-2.897 0-1.599-1.369-2.896-3.059-2.896-1.687 0-3.056 1.297-3.056 2.896z" fill="#6d7b9e"/><path d="m138.9 107.822v-.001zm-3.079-2.919h.001c-.001 0-.001 0-.001 0z" fill="#52727f"/><path d="m137.344 109.352c.429 0 .837-.086 1.207-.237.211-.39.345-.826.349-1.293v-.001c0-.007 0-.015 0-.022 0-1.599-1.369-2.896-3.059-2.896-.006 0-.012 0-.019 0-.001 0-.001 0-.001 0-.421.003-.821.088-1.187.236-.215.397-.349.84-.349 1.317 0 1.599 1.369 2.896 3.059 2.896z" fill="#909fc0"/><path d="m115.851 107.799c0 2.386 2.04 4.318 4.559 4.318 2.517 0 4.558-1.932 4.558-4.318 0-2.384-2.041-4.318-4.558-4.318-2.519 0-4.559 1.934-4.559 4.318z" fill="#1c3d3b"/><path d="m117.351 107.799c0 1.6 1.37 2.897 3.058 2.897 1.689 0 3.058-1.297 3.058-2.897 0-1.599-1.369-2.896-3.058-2.896-1.688 0-3.058 1.297-3.058 2.896z" fill="#6d7b9e"/><path d="m123.467 107.822v-.001zm-3.079-2.919h.001s0 0-.001 0z" fill="#52727f"/><path d="m121.911 109.352c.429 0 .838-.086 1.208-.237.212-.39.344-.826.348-1.293v-.001c0-.007 0-.015 0-.022 0-1.599-1.369-2.896-3.058-2.896-.006 0-.012 0-.02 0 0 0 0 0-.001 0-.421.003-.821.088-1.186.236-.216.397-.348.84-.348 1.317 0 1.599 1.369 2.896 3.057 2.896z" fill="#909fc0"/><path d="m100.374 107.799c0 2.386 2.041 4.318 4.558 4.318 2.519 0 4.561-1.932 4.561-4.318 0-2.384-2.042-4.318-4.561-4.318-2.517 0-4.558 1.934-4.558 4.318z" fill="#1c3d3b"/><path d="m101.875 107.799c0 1.6 1.37 2.897 3.057 2.897 1.69 0 3.059-1.297 3.059-2.897 0-1.599-1.369-2.896-3.059-2.896-1.687 0-3.057 1.297-3.057 2.896z" fill="#6d7b9e"/><path d="m106.435 109.352c.43 0 .837-.086 1.208-.237.212-.39.344-.826.348-1.293v-.001c0-.007 0-.015 0-.022 0-1.599-1.369-2.896-3.059-2.896-.006 0-.012 0-.02 0-.421.003-.821.088-1.187.236-.215.397-.347.84-.347 1.317 0 1.599 1.369 2.896 3.057 2.896z" fill="#909fc0"/><path d="m159.162 100.894-9.088-2.4538-7.715 16.9648 8.484-.741z" fill="#1c3d3b"/><path d="m157.431 101.764-6.966 12.012h-5.919l6.297-13.9435z" fill="#6d7b9e"/><path d="m149.986 113.776h.479l6.966-12.012-6.588-1.9315-.516 1.1435c-.364 3.439-.759 8.719-.341 12.8z" fill="#909fc0"/><path d="m59.8157 50.3127c-.1035 1.3816-8.2496 1.9684-18.1963 1.3111-9.948-.6562-17.9288-2.3078-17.8279-3.6894.1009-1.3803 8.2484-1.9671 18.1951-1.311 9.948.6561 17.93 2.3077 17.8291 3.6893z" fill="#d93b76"/><path d="m81.6258 92.7956 13.7094 27.8154 41.9988.321-40.467-1.529z" fill="#1c3d3b"/></svg>