<svg fill="none" height="18" viewBox="0 0 18 18" width="18" xmlns="http://www.w3.org/2000/svg"><path d="m6.2881 2.24469 1.68468 6.17049s-2.5601-.07667-5.31178-1.62676c-1.990698-1.12391-3.88352-4.41382-1.65708-6.121127 1.81837-1.395473 4.72309-.474235 5.28418 1.577397" fill="#1c2929"/><path d="m12.0794 16.2985-3.07928-6.1533s2.43738-.53559 5.41208.4504c2.152.7132 4.7342 3.7565 3.0404 6.1078-1.3815 1.9208-4.3481 1.6424-5.3732-.4049z" fill="#0b1717"/><path d="m6.28965 15.755 1.66811-6.16916s-2.56281.07537-5.3076 1.62546c-1.987942 1.1226-3.87247 4.4138-1.64052 6.1211 1.82388 1.3955 4.72581.4756 5.28001-1.5774" fill="#1c2929"/><g fill="#0b1717"><path d="m16.1904 5.47534-6.1278 2.52466s-.38139-2.25478.7406-4.92542c.8123-1.93458 3.9003-4.15007 6.0811-2.492729 1.7801 1.354329 1.3437 4.053169-.6939 4.893489"/><path d="m6.00023 8.97785c.01544-1.65621 1.36983-2.99063 3.02539-2.97776 1.65708.01287 2.98678 1.3659 2.97438 3.02211-.0154 1.6562-1.3698 2.9892-3.02535 2.9777-1.65711-.0128-2.98832-1.3658-2.97442-3.02205z"/></g></svg>